<?xml version="1.0" standalone="no"?>
<!DOCTYPE svg PUBLIC "-//W3C//DTD SVG 20010904//EN"
 "http://www.w3.org/TR/2001/REC-SVG-20010904/DTD/svg10.dtd">
<svg version="1.0" xmlns="http://www.w3.org/2000/svg"
 width="1280.000000pt" height="1133.000000pt" viewBox="0 0 1280.000000 1133.000000"
 preserveAspectRatio="xMidYMid meet">
<metadata>
Created by potrace 1.16, written by Peter Selinger 2001-2019
</metadata>
<g transform="translate(0.000000,1133.000000) scale(0.100000,-0.100000)"
fill="#000000" stroke="none">
<path d="M2731 11263 c-11 -38 -23 -81 -26 -98 -4 -16 -16 -55 -27 -85 -23
-62 -44 -148 -58 -232 -5 -31 -29 -116 -53 -190 -24 -73 -54 -167 -66 -208
-13 -41 -28 -88 -33 -105 -6 -16 -16 -57 -22 -90 -9 -45 -18 -63 -34 -71 -13
-7 -139 -13 -324 -17 -523 -12 -903 -27 -1198 -47 -157 -11 -380 -20 -496 -20
-116 0 -252 -3 -302 -6 l-92 -7 0 -250 0 -249 53 6 c28 3 176 12 327 21 151 8
336 20 411 25 75 6 275 15 445 20 170 6 320 13 334 16 13 3 159 11 323 18 270
12 366 10 384 -8 3 -3 -5 -45 -19 -93 -55 -189 -92 -389 -82 -446 6 -36 8 -38
33 -32 43 11 45 19 33 102 -17 107 -15 143 8 221 12 37 26 85 33 107 20 71 58
144 76 150 21 6 420 -11 571 -25 52 -5 221 -14 375 -19 321 -11 526 -25 705
-47 97 -12 146 -14 215 -6 50 5 293 10 540 11 248 1 491 6 540 11 189 20 304
8 290 -29 -4 -9 -10 -39 -15 -68 -9 -52 -29 -93 -62 -126 -10 -10 -20 -28 -22
-40 -24 -127 -65 -291 -86 -342 -18 -45 -23 -60 -21 -68 0 -4 -8 -26 -19 -49
-11 -23 -20 -50 -20 -60 0 -10 -4 -18 -10 -18 -5 0 -10 -15 -10 -32 0 -18 -7
-46 -16 -63 -9 -16 -17 -41 -19 -55 -5 -52 -18 -115 -25 -125 -4 -5 -13 -50
-19 -100 -7 -49 -15 -97 -18 -105 -3 -8 -8 -31 -10 -50 -2 -19 -13 -75 -24
-125 -11 -49 -21 -99 -22 -110 -1 -11 -8 -30 -16 -43 -7 -13 -10 -30 -7 -38 3
-7 -1 -28 -8 -46 -15 -35 -43 -181 -45 -237 -1 -18 -10 -45 -20 -60 -11 -16
-21 -54 -25 -96 -6 -65 -39 -197 -71 -288 -8 -21 -11 -45 -8 -53 3 -8 2 -22
-2 -31 -5 -10 -7 -26 -6 -35 1 -10 -4 -18 -11 -18 -9 0 -12 -14 -9 -51 2 -36
-1 -54 -10 -60 -8 -5 -256 -6 -554 -3 -297 4 -949 8 -1450 9 -968 3 -1141 7
-1166 32 -8 8 -5 13 10 18 12 3 21 11 21 16 0 5 11 9 24 9 18 0 25 7 29 30 4
16 4 37 1 45 -7 18 26 21 44 3 6 -6 15 -8 19 -4 4 4 1 11 -7 16 -11 7 -12 11
0 24 18 23 4 33 -18 13 -21 -19 -42 -22 -42 -7 0 6 -4 10 -10 10 -5 0 -10 -7
-10 -15 0 -37 -43 -2 -66 54 -14 33 -3 51 20 32 7 -6 21 -9 30 -5 9 4 16 1 16
-6 0 -13 29 -39 44 -40 4 0 6 7 2 15 -7 19 1 19 36 1 20 -10 28 -11 31 -3 3 9
13 7 35 -5 16 -10 33 -18 36 -18 13 0 5 45 -11 63 -17 18 -17 19 0 28 18 11
24 39 7 39 -5 0 -14 -9 -20 -20 -12 -23 -30 -27 -30 -6 0 7 12 21 26 31 23 15
27 15 43 1 20 -18 41 -21 41 -6 0 6 7 10 15 10 19 0 19 -6 -3 -28 -9 -9 -25
-16 -35 -14 -9 2 -20 -4 -23 -12 -8 -20 36 -59 50 -45 6 5 18 9 28 9 10 0 18
5 18 10 0 6 -7 10 -15 10 -8 0 -15 6 -15 14 0 22 17 29 27 12 6 -10 13 -12 23
-6 12 7 11 12 -4 29 -18 20 -18 21 8 30 14 6 26 16 26 23 0 9 -3 9 -12 0 -18
-18 -34 -14 -46 12 -9 19 -8 27 4 36 19 16 18 27 -6 58 -14 17 -17 29 -10 36
5 5 10 15 10 20 0 6 -5 5 -12 -2 -13 -13 -48 -16 -48 -4 0 10 38 42 49 42 5 0
12 6 15 13 3 8 8 6 17 -7 9 -14 13 -15 19 -6 12 19 -13 40 -39 33 -20 -5 -21
-3 -15 41 6 44 5 46 -17 46 -19 0 -24 6 -25 25 -2 32 23 33 37 1 6 -13 18 -23
28 -21 9 1 11 0 5 -2 -8 -3 -8 -14 1 -41 15 -43 35 -54 35 -19 0 13 9 32 20
42 24 22 36 14 19 -13 -14 -22 -5 -57 12 -46 9 5 10 -1 5 -20 -8 -31 12 -36
37 -8 11 12 13 22 7 32 -13 21 -12 36 1 23 8 -8 18 -4 35 15 l23 27 1 -26 c0
-15 -7 -32 -15 -39 -12 -10 -13 -16 -4 -26 6 -8 17 -14 24 -14 7 0 16 -7 19
-16 8 -22 8 -24 -8 -24 -8 0 -18 -4 -21 -10 -4 -6 6 -10 22 -10 24 0 28 4 28
25 -1 14 -4 28 -8 31 -3 3 -3 12 0 20 3 8 -1 14 -11 14 -22 0 -20 20 2 20 15
1 15 2 -2 15 -18 14 -19 18 -7 51 9 26 10 39 2 47 -18 18 -13 25 13 20 18 -4
26 -13 28 -32 2 -20 8 -26 28 -26 22 0 25 4 26 40 0 22 6 51 13 64 10 18 10
25 1 31 -8 5 -9 10 -2 14 6 4 9 13 5 21 -3 9 1 15 11 15 9 0 16 8 16 20 0 11
-4 20 -10 20 -5 0 -10 7 -10 15 0 8 4 15 9 15 11 0 26 -39 22 -58 -3 -15 17
-42 30 -42 5 0 9 11 9 24 0 13 7 29 16 36 19 17 62 22 70 9 4 -6 11 -6 20 2
12 10 11 14 -7 23 -27 13 -37 36 -16 36 9 0 18 6 20 13 7 16 29 -13 22 -30 -2
-7 2 -16 9 -20 7 -5 16 -18 20 -30 8 -27 -12 -40 -69 -44 -33 -3 -40 -1 -40
13 0 10 -4 18 -10 17 -5 0 -9 -11 -8 -25 1 -13 -3 -24 -8 -24 -11 0 -39 -25
-39 -34 0 -3 7 -6 16 -6 11 0 14 -6 8 -22 -9 -32 -12 -34 -33 -21 -15 10 -20
8 -31 -12 -7 -13 -9 -35 -5 -53 3 -18 2 -33 -4 -37 -6 -3 -11 -18 -11 -33 0
-25 -1 -25 -14 -6 -9 12 -11 23 -5 30 7 8 2 13 -16 16 -13 3 -27 3 -29 0 -6
-6 15 -44 34 -59 13 -11 13 -12 0 -13 -25 -1 11 -20 38 -20 12 0 22 -5 22 -11
0 -8 4 -8 14 0 19 16 32 -4 16 -24 -6 -8 -9 -19 -5 -25 11 -17 -17 -11 -31 8
-12 15 -13 14 -14 -11 0 -27 2 -28 38 -25 31 2 37 0 38 -17 1 -11 2 -23 3 -27
1 -5 10 1 21 12 21 21 27 54 16 82 -5 11 -1 20 13 28 12 6 21 20 21 30 0 22 7
24 29 11 9 -6 10 -11 2 -15 -18 -12 -12 -36 9 -36 20 0 26 11 13 24 -4 4 -8
13 -9 19 0 7 -2 20 -2 30 -3 26 -47 22 -70 -7 -17 -23 -21 -24 -45 -11 -22 11
-28 11 -38 -1 -18 -22 -26 -17 -25 21 1 39 15 45 34 15 7 -11 16 -20 21 -20 5
0 13 9 16 20 4 13 15 20 32 20 23 0 24 3 17 28 -10 33 -10 89 -1 99 4 3 18 1
33 -5 34 -16 77 -5 71 17 -3 12 5 22 25 30 21 9 26 16 19 25 -15 18 -2 56 23
67 11 5 29 14 38 21 14 10 21 9 37 -6 26 -24 27 -42 1 -58 -11 -7 -20 -23 -20
-35 0 -12 -6 -23 -12 -26 -7 -2 -10 -8 -6 -12 8 -8 38 18 38 33 0 5 9 17 20
27 16 14 23 15 34 6 8 -7 19 -10 24 -7 6 3 12 -10 14 -29 2 -19 0 -35 -4 -35
-4 0 -8 -7 -8 -15 0 -8 -4 -15 -10 -15 -5 0 -10 -7 -10 -15 0 -24 17 -18 56
22 35 35 37 36 51 17 8 -10 11 -29 8 -41 -3 -13 -1 -23 5 -23 5 0 10 13 10 28
0 30 20 82 32 82 4 0 8 -10 10 -22 2 -13 10 -23 18 -23 10 0 14 8 13 23 -2 12
2 22 7 22 6 0 10 4 10 9 0 9 -69 -1 -89 -14 -16 -9 -31 11 -31 44 0 13 -7 29
-17 36 -9 7 -14 19 -10 29 9 23 27 20 27 -4 0 -18 32 -60 45 -60 3 0 3 11 -1
25 -4 18 -1 27 10 31 11 4 15 16 14 37 -1 17 3 32 10 35 17 5 15 22 -3 22 -8
0 -15 5 -15 10 0 16 15 12 35 -10 10 -11 13 -20 8 -20 -6 0 -13 -12 -16 -27
-6 -31 13 -53 46 -53 14 0 17 5 12 20 -8 24 1 26 22 5 12 -12 12 -19 3 -30
-12 -15 -6 -35 11 -35 5 0 15 11 21 25 16 35 31 31 23 -5 -5 -22 -3 -30 8 -30
15 0 37 61 37 105 0 21 4 26 16 21 9 -4 22 -2 29 4 9 8 15 8 20 0 3 -5 14 -10
24 -10 10 0 21 -9 24 -20 3 -11 10 -20 16 -20 15 0 14 37 -1 46 -8 5 -6 10 5
19 25 18 4 42 -25 28 -38 -19 -58 -23 -58 -13 0 6 -13 10 -28 10 -16 0 -32 3
-36 8 -4 4 -12 8 -17 8 -5 1 -13 2 -19 3 -5 0 -10 8 -10 16 0 8 3 14 8 13 4 0
23 6 42 15 33 15 35 15 38 -4 2 -11 11 -19 22 -19 10 0 22 -4 25 -10 11 -18
25 -10 25 15 0 21 -5 25 -29 25 -39 0 -54 20 -41 54 5 14 14 26 20 26 5 0 10
5 10 10 0 22 -41 9 -50 -15 -12 -32 -23 -32 -44 0 -21 32 -20 38 4 30 11 -3
20 -2 20 3 0 6 -5 12 -11 14 -7 2 -7 12 1 32 8 21 7 32 -1 42 -7 8 -9 17 -5
21 3 4 13 -3 22 -15 11 -15 22 -20 37 -17 26 7 58 -32 38 -45 -8 -5 -7 -15 3
-35 14 -26 14 -31 -1 -47 -15 -17 -14 -18 12 -18 25 0 27 2 21 31 -5 28 -4 31
14 26 15 -4 20 0 20 13 0 14 -5 17 -21 13 -16 -4 -20 -2 -17 8 3 8 9 14 14 14
5 0 14 4 21 8 6 4 18 4 27 1 11 -4 19 2 26 22 13 34 -3 57 -22 31 -16 -20 -69
-27 -75 -9 -3 8 5 12 24 12 16 0 38 7 50 15 24 17 38 62 25 78 -15 18 4 57 28
57 25 0 28 -43 5 -86 -13 -26 -13 -30 5 -46 14 -13 28 -16 45 -12 17 4 25 2
25 -7 0 -11 2 -11 8 -2 12 18 9 76 -4 80 -7 2 -18 -10 -25 -27 -8 -16 -18 -30
-23 -30 -11 0 3 53 17 63 9 5 7 11 -6 21 -22 17 -20 70 3 72 61 4 59 2 47 29
-7 14 -15 25 -19 25 -5 0 -8 7 -8 17 0 15 -2 15 -19 -1 -11 -10 -29 -16 -42
-14 -28 4 -37 -18 -9 -25 26 -7 26 -24 0 -32 -11 -3 -20 -11 -20 -17 0 -6 -12
-8 -31 -4 -23 4 -30 3 -26 -7 19 -47 20 -50 9 -43 -7 4 -12 14 -12 22 0 8 -9
14 -20 14 -11 0 -20 -7 -20 -16 0 -8 -4 -13 -9 -10 -5 4 -3 19 6 36 12 25 19
29 39 24 15 -4 24 -2 24 6 0 7 7 10 15 6 9 -3 15 0 15 9 0 10 -12 13 -54 9
-41 -3 -58 0 -70 12 -18 18 -21 34 -5 34 6 0 9 12 7 28 -2 19 -9 27 -23 27
-14 0 -19 -6 -17 -17 2 -11 -3 -18 -13 -18 -8 0 -15 7 -15 15 0 8 -5 15 -11
15 -6 0 -8 11 -4 29 6 30 0 40 -48 76 -15 11 -27 28 -27 38 0 15 6 18 33 13
17 -3 26 -3 20 0 -7 3 -13 14 -13 25 0 23 -6 24 -27 4 -14 -14 -17 -14 -32 0
-10 8 -25 15 -33 15 -9 0 -21 7 -29 16 -11 13 -9 14 14 9 23 -6 27 -4 27 13 0
13 -9 22 -27 27 -42 10 -53 23 -46 56 4 24 2 29 -14 29 -10 0 -24 5 -30 11
-11 11 -93 -25 -93 -42 0 -16 -28 2 -33 22 -3 11 -14 19 -25 19 -12 0 -24 5
-27 10 -4 6 -15 8 -26 5 -22 -7 -25 5 -6 24 10 11 10 14 0 18 -7 3 -13 13 -13
24 0 10 -4 19 -9 19 -5 0 -12 8 -14 18 -4 13 -5 12 -6 -5 0 -12 -10 -27 -21
-33 -37 -20 -41 -44 -14 -74 20 -21 23 -30 14 -41 -16 -20 -6 -32 35 -39 35
-7 36 -8 29 -44 -9 -54 -8 -53 -103 -64 -25 -3 -36 10 -45 53 -5 25 -8 26 -38
18 -112 -29 -133 -37 -136 -53 -2 -9 -8 -16 -13 -16 -6 0 -9 -23 -7 -56 2 -30
1 -57 -4 -60 -4 -3 -5 -11 -2 -18 6 -15 -37 -31 -46 -17 -9 15 -66 16 -83 3
-8 -7 -38 -14 -66 -14 -34 -2 -51 -6 -51 -15 0 -7 -9 -13 -20 -13 -17 0 -19 3
-11 18 11 21 -9 94 -28 100 -5 2 -20 19 -32 39 l-22 35 -21 -24 c-16 -16 -23
-38 -24 -73 -3 -72 -12 -108 -31 -122 -23 -18 -31 -16 -31 7 0 11 -4 20 -10
20 -5 0 -10 -7 -10 -15 0 -9 -9 -15 -25 -15 -16 0 -25 6 -25 15 0 8 5 15 10
15 6 0 10 5 10 11 0 6 -13 9 -30 7 -16 -1 -31 2 -32 7 -2 6 14 10 35 11 26 1
37 -3 37 -13 0 -8 5 -13 11 -11 6 2 10 7 9 11 -12 51 -14 52 -79 47 l-34 -2
21 37 c28 46 29 68 3 60 -13 -4 -23 0 -30 12 -9 16 -10 16 -11 -4 0 -12 -4
-24 -9 -27 -12 -8 -20 39 -9 58 6 10 5 16 -2 16 -5 0 -10 -6 -10 -13 0 -41
-171 -78 -200 -42 -7 8 -19 15 -26 15 -8 0 -23 9 -34 20 -11 11 -27 20 -36 20
-12 0 -15 7 -12 30 5 33 -8 39 -28 13 -7 -10 -15 -15 -18 -12 -10 10 15 69 30
69 10 0 14 14 14 50 0 50 0 50 -47 73 -28 13 -49 30 -51 41 -5 21 -25 46 -39
46 -5 0 -24 -11 -43 -25 -19 -14 -41 -25 -49 -25 -8 0 -22 -6 -30 -14 -9 -8
-45 -20 -81 -27 -39 -7 -72 -20 -83 -32 -12 -14 -31 -20 -67 -20 -28 0 -50 -4
-50 -7 0 -13 -105 -60 -133 -60 -15 0 -27 -4 -27 -8 0 -11 -90 -42 -123 -42
-17 0 -30 7 -34 18 -3 9 -12 24 -20 34 -19 21 -23 62 -13 118 8 39 7 47 -12
63 -31 26 -57 22 -63 -10 -10 -49 -30 -78 -65 -95 -19 -9 -41 -22 -47 -28 -7
-6 -13 -7 -13 -3 0 4 -5 2 -12 -5 -7 -7 -11 -28 -10 -48 2 -29 0 -35 -13 -31
-8 4 -30 -2 -48 -13 -18 -11 -50 -22 -71 -24 -20 -3 -51 -12 -67 -20 -35 -17
-55 -13 -62 14 -6 23 -71 38 -91 21 -7 -6 -21 -9 -30 -5 -15 6 -16 -339 -16
-4455 l0 -4461 1022 0 c839 0 1032 3 1076 14 42 12 200 14 815 16 419 0 877 2
1017 4 243 2 311 -4 279 -25 -8 -5 1150 -9 2796 -9 2338 1 2817 3 2850 14 67
23 186 30 545 32 190 1 377 5 415 8 39 4 140 2 225 -4 85 -6 164 -11 175 -11
141 1 195 0 222 -5 64 -12 22 -20 -114 -23 -76 -1 -140 -4 -142 -7 -2 -2 361
-4 807 -4 l812 0 0 1414 0 1413 -72 11 c-71 10 -165 15 -295 14 -35 0 -63 4
-63 8 0 12 162 23 228 16 31 -3 90 -8 130 -10 l72 -4 0 3025 0 3024 -34 33
c-33 31 -34 34 -29 91 6 71 -8 115 -37 115 -11 0 -20 -4 -20 -9 0 -5 -15 -29
-34 -54 -25 -33 -31 -48 -24 -60 7 -13 5 -17 -7 -17 -17 0 -20 -16 -5 -25 16
-10 -8 -35 -32 -35 -16 0 -19 5 -14 28 6 25 4 27 -24 29 -17 1 -28 -2 -26 -6
3 -5 -15 -6 -40 -3 -39 4 -47 2 -61 -17 -11 -16 -22 -21 -37 -17 -18 4 -27 -3
-51 -45 -29 -48 -31 -50 -69 -47 -46 3 -62 24 -100 130 -21 57 -22 67 -10 103
8 22 19 50 26 63 13 26 5 38 -34 47 -36 9 -54 -20 -69 -115 -14 -91 -24 -120
-43 -120 -21 0 -26 -22 -9 -42 13 -15 13 -20 -3 -47 -10 -17 -26 -33 -35 -36
-22 -7 -36 -41 -43 -100 -4 -35 -13 -56 -30 -71 -13 -12 -27 -31 -31 -43 -3
-11 -10 -21 -15 -21 -5 0 -12 -9 -15 -20 -3 -11 -11 -20 -16 -20 -6 0 -8 8 -4
19 7 22 -16 34 -48 25 -22 -5 -22 -3 -20 68 3 67 1 76 -23 101 -31 34 -59 32
-58 -3 2 -54 14 -113 25 -126 6 -7 9 -19 6 -26 -3 -8 -6 -5 -6 7 -1 14 -4 16
-12 8 -8 -8 -5 -19 11 -40 l21 -30 -22 -37 c-13 -22 -39 -46 -67 -60 -39 -20
-45 -28 -47 -57 -3 -39 -33 -143 -34 -116 -1 18 -26 22 -69 11 -28 -8 -23 -30
6 -26 18 3 22 -2 22 -26 0 -30 -14 -42 -57 -51 -5 -1 0 -8 10 -15 16 -12 15
-15 -19 -41 -31 -24 -35 -32 -32 -61 4 -30 1 -34 -19 -34 -13 0 -23 5 -23 11
0 6 -8 3 -17 -6 -23 -23 -5 -51 30 -47 35 4 44 -16 10 -24 -15 -4 -31 -11 -34
-17 -9 -13 -29 1 -29 21 0 16 -45 62 -61 62 -16 0 -39 -13 -39 -21 0 -5 11 -7
25 -3 19 5 25 2 25 -10 0 -9 10 -21 23 -25 20 -8 20 -10 4 -16 -12 -5 -22 -1
-31 11 -12 15 -16 16 -30 5 -20 -17 -20 -30 1 -53 14 -16 15 -21 2 -45 -11
-20 -11 -27 -1 -30 6 -3 12 -11 12 -19 0 -8 9 -14 20 -14 11 0 20 -4 20 -9 0
-5 13 -23 29 -40 22 -24 36 -30 53 -26 32 7 56 -9 40 -28 -7 -7 -9 -17 -5 -20
3 -4 -5 -7 -20 -7 -14 0 -29 -5 -33 -11 -3 -6 -15 -9 -25 -6 -12 3 -19 0 -19
-9 0 -8 -11 -19 -25 -24 -14 -5 -28 -17 -31 -25 -8 -20 -24 -19 -24 1 0 12 -6
15 -25 10 -20 -5 -25 -3 -25 12 0 31 -11 32 -36 5 -12 -13 -28 -22 -33 -18
-15 9 -14 -8 1 -23 8 -8 9 -15 1 -23 -13 -13 -67 47 -57 63 4 7 2 8 -4 4 -7
-4 -12 -15 -12 -25 0 -10 -11 -26 -25 -35 -30 -20 -32 -41 -5 -56 11 -6 20
-18 20 -27 0 -15 12 -15 53 2 12 5 17 2 17 -9 0 -9 5 -16 10 -16 13 0 13 23 0
36 -13 13 -2 46 14 41 6 -2 13 -17 16 -33 5 -27 6 -28 18 -9 10 17 13 18 22 5
5 -8 7 -23 4 -32 -10 -33 5 -59 31 -52 30 7 41 -11 24 -43 -10 -18 -18 -23
-36 -18 -13 3 -23 1 -23 -4 0 -21 24 -61 37 -61 7 0 13 -4 13 -10 0 -5 9 -10
19 -10 11 0 23 -4 26 -10 9 -14 -13 -50 -31 -50 -12 0 -12 -4 -4 -20 9 -17 8
-20 -11 -20 -19 0 -21 -4 -15 -35 6 -28 4 -35 -9 -35 -13 0 -12 -4 5 -22 l21
-23 -21 -3 c-12 -2 -25 -12 -27 -22 -3 -11 -15 -20 -27 -22 -11 -2 -21 -9 -21
-17 0 -29 12 -29 -545 -15 -206 5 -426 9 -487 9 -81 0 -114 4 -118 12 -5 15
-45 18 -45 4 0 -5 6 -12 13 -14 6 -3 -87 -6 -208 -6 -327 -1 -624 -12 -720
-26 -30 -4 -292 -18 -330 -17 -11 0 -49 -4 -85 -8 -50 -7 -247 -18 -334 -20
-5 0 1 -12 15 -26 34 -37 11 -29 -113 41 -93 53 -107 64 -112 91 -7 34 -27 46
-102 62 -25 6 -53 22 -75 45 -26 27 -44 36 -74 39 -31 2 -41 8 -43 23 -2 11
-9 25 -16 30 -18 14 -66 111 -66 133 0 10 -5 23 -11 29 -22 22 -4 383 21 424
8 11 13 12 30 2 29 -19 30 -17 13 18 -19 37 -12 123 12 149 8 9 15 22 15 29 0
14 76 91 90 91 5 0 18 16 31 36 12 20 31 44 42 55 18 16 21 33 23 120 2 55 7
106 12 112 12 15 27 95 24 125 -4 34 25 110 68 177 21 33 41 77 44 97 4 23 18
47 39 65 29 25 32 34 31 78 0 31 -10 67 -24 95 -13 25 -25 61 -25 80 -1 19 -7
48 -13 63 -7 16 -12 37 -12 48 0 10 -4 19 -9 19 -5 0 -9 10 -9 23 0 59 -38
171 -82 244 -19 32 -19 33 1 43 10 6 24 8 29 5 6 -4 13 1 16 9 3 9 11 16 16
16 6 0 8 -6 5 -14 -4 -11 9 -16 56 -22 95 -11 148 -12 194 -4 46 8 1108 -16
1132 -25 8 -3 44 -8 80 -11 36 -3 70 -9 74 -13 5 -5 0 -26 -11 -47 -37 -72
-92 -218 -92 -242 0 -21 2 -23 15 -12 9 7 22 28 31 46 9 19 21 31 28 28 16 -6
41 49 32 71 -3 9 0 15 8 15 16 0 32 33 18 38 -8 2 -2 40 15 101 3 11 19 13 81
8 43 -3 90 -11 105 -16 34 -13 107 -86 107 -108 0 -13 3 -14 11 -6 9 9 8 22
-5 53 -9 22 -16 44 -16 49 0 11 67 20 108 14 l32 -5 0 -62 c0 -34 -4 -66 -9
-71 -14 -16 -24 -222 -11 -230 14 -9 40 55 40 100 0 28 4 35 19 35 11 0 23 5
26 10 39 63 26 -197 -24 -477 -6 -29 -13 -58 -17 -64 -4 -7 1 -10 12 -7 11 2
25 20 34 45 9 23 26 52 38 63 12 11 22 25 22 30 0 6 4 10 8 10 5 0 12 -72 15
-160 6 -134 5 -166 -8 -190 -9 -17 -23 -30 -33 -30 -29 0 -42 -19 -31 -47 6
-17 6 -30 -2 -39 -8 -10 -6 -22 9 -48 11 -18 23 -48 27 -65 3 -17 11 -33 16
-36 5 -4 9 -26 9 -49 0 -76 19 -98 102 -119 70 -17 74 -17 86 0 9 12 12 33 8
63 -4 25 -8 71 -10 103 -3 34 -11 66 -20 76 -8 9 -22 33 -31 54 -17 41 -39
217 -36 289 1 30 -5 61 -17 85 -25 50 -41 178 -43 343 -2 174 -7 338 -11 370
l-3 25 417 0 c474 0 453 4 438 -75 -16 -80 -13 -106 17 -125 25 -17 27 -17 44
6 10 13 21 21 25 17 4 -4 1 -56 -6 -116 l-13 -108 26 -27 c16 -15 27 -37 27
-54 0 -37 13 -55 33 -48 16 7 42 -27 30 -38 -3 -4 -7 -62 -9 -129 -3 -122 4
-164 26 -142 13 13 30 112 30 177 0 26 8 62 17 80 14 27 17 56 15 182 -2 83
-7 188 -12 235 -15 128 -14 137 14 144 31 8 52 0 60 -22 4 -9 14 -30 24 -47
l17 -30 3 27 c2 15 -2 36 -8 48 -9 17 -7 22 17 31 15 5 50 7 77 4 28 -4 139
-8 246 -10 107 -2 256 -8 330 -14 74 -6 243 -15 375 -21 132 -5 252 -12 268
-16 l27 -6 0 254 0 254 -122 13 c-68 7 -157 16 -198 21 -90 10 -246 18 -520
25 -269 7 -424 15 -436 23 -6 4 -16 34 -24 67 -8 33 -31 96 -51 140 -51 110
-67 196 -42 217 20 16 25 7 78 -122 45 -111 82 -180 98 -180 11 0 8 44 -8 107
-8 31 -15 77 -15 101 0 36 -4 45 -20 49 -12 3 -28 19 -37 36 -14 28 -14 32 1
42 9 7 16 18 16 24 0 25 23 4 39 -36 34 -87 67 -92 49 -8 -5 28 -11 95 -13
150 -3 87 -1 97 11 80 8 -10 14 -13 14 -7 0 24 15 11 35 -29 10 -23 21 -36 23
-29 3 7 0 22 -6 33 -22 48 -42 114 -42 142 0 23 -3 27 -10 15 -8 -12 -10 -11
-10 8 0 12 -5 22 -11 22 -6 0 -9 10 -8 23 4 41 -60 177 -102 218 -16 16 -29
36 -29 46 0 10 -14 48 -32 85 l-33 67 -336 1 c-300 0 -338 -2 -343 -16 -3 -9
-13 -14 -21 -10 -17 6 -45 -29 -45 -57 0 -11 6 -17 18 -15 21 4 28 -32 11 -63
-11 -22 -12 -22 -25 -4 -10 13 -17 16 -25 8 -16 -16 -41 -134 -35 -165 3 -15
1 -30 -4 -33 -15 -9 -12 -35 4 -35 9 0 14 -10 13 -27 -4 -119 16 -133 49 -35
21 65 34 71 34 16 0 -33 20 -58 28 -35 2 7 15 16 28 21 13 5 24 16 24 25 0 8
7 15 15 15 8 0 15 4 15 9 0 18 33 21 45 5 13 -19 35 -11 35 13 0 8 -8 27 -19
41 -18 27 -18 27 5 51 l23 24 12 -29 c17 -39 17 -38 32 -26 19 16 57 -12 57
-41 0 -12 -11 -40 -25 -62 -16 -27 -24 -55 -25 -85 0 -48 -20 -161 -45 -250
-19 -69 -19 -84 -1 -77 20 8 29 -35 17 -81 -27 -108 -40 -236 -22 -217 5 6 16
42 26 80 9 39 25 86 36 105 l18 35 1 -47 c0 -40 3 -48 19 -48 10 0 29 -8 41
-18 22 -18 22 -22 12 -65 -7 -25 -12 -73 -12 -106 l0 -61 -385 0 c-420 0 -435
2 -435 52 0 16 -18 64 -39 106 -49 96 -51 108 -24 163 11 24 24 52 27 62 5 14
10 16 25 7 11 -5 22 -10 25 -10 9 0 7 35 -3 45 -4 6 -25 50 -45 99 -26 63 -35
98 -31 117 5 20 -4 48 -29 101 -19 40 -39 89 -44 109 -6 20 -19 46 -31 58 -12
12 -24 35 -28 51 -3 17 -11 30 -17 30 -6 0 -2 7 8 15 17 13 18 18 8 40 -14 30
-16 65 -4 65 8 0 52 -75 52 -90 0 -11 62 -112 83 -135 10 -11 32 -41 48 -68
16 -26 40 -52 53 -57 13 -5 26 -14 28 -21 2 -7 11 -13 19 -15 7 -1 21 -5 31
-9 14 -6 15 -2 9 27 -4 18 -15 47 -24 65 -10 18 -17 43 -17 56 0 13 -14 41
-30 62 -18 22 -30 50 -30 66 0 16 -11 52 -25 81 -14 28 -25 62 -25 74 0 13
-19 42 -45 68 -42 44 -47 46 -100 46 -59 0 -60 -1 -46 -28 13 -26 31 -85 27
-89 -8 -9 -94 50 -119 82 l-28 35 -276 0 -275 0 6 -30 c5 -28 4 -30 -21 -28
-23 3 -28 -3 -42 -44 -9 -26 -19 -50 -23 -54 -16 -16 -8 -36 12 -31 22 6 29
-18 8 -26 -7 -2 -10 -8 -6 -12 4 -4 14 -2 22 4 23 19 26 0 10 -64 -8 -33 -16
-73 -19 -90 -2 -16 -13 -56 -25 -89 -22 -65 -20 -76 15 -76 38 0 60 -40 45
-84 -6 -19 -20 -46 -31 -60 -24 -30 -18 -92 7 -82 7 3 16 1 19 -4 9 -14 21
-12 38 5 13 12 17 12 32 -5 10 -11 21 -41 26 -67 5 -26 13 -49 18 -51 10 -3
-9 -96 -26 -127 -16 -28 -26 -135 -13 -135 5 0 10 -8 11 -17 0 -13 2 -14 6 -4
3 8 12 21 19 30 8 9 20 25 28 36 12 16 16 17 30 6 13 -11 16 -9 22 16 9 34 63
141 75 149 18 10 9 24 -16 24 -32 0 -65 33 -65 64 0 13 11 40 25 60 14 20 25
40 25 44 0 4 9 22 20 40 17 28 23 32 36 21 11 -9 18 -9 26 -1 20 20 28 13 22
-17 -4 -20 -2 -30 10 -34 9 -4 16 -15 16 -25 0 -36 21 -80 42 -85 15 -4 19
-11 15 -26 -3 -12 3 -27 14 -37 10 -9 19 -25 19 -34 0 -9 7 -32 16 -49 31 -63
-1 -250 -43 -251 -7 0 -29 16 -50 35 l-38 35 28 50 c32 60 33 64 7 50 -20 -11
-22 -9 -24 20 -2 32 -32 13 -56 -35 -19 -38 -31 -51 -50 -53 -21 -2 -28 -11
-39 -47 -21 -71 -26 -73 -201 -76 -85 -1 -319 0 -520 4 -236 4 -351 3 -325 -3
22 -5 63 -9 91 -8 27 1 57 -3 65 -7 8 -5 24 -8 37 -6 12 1 22 -2 22 -7 0 -14
-24 -22 -48 -15 -11 2 -32 -3 -47 -13 -25 -17 -28 -17 -37 -1 -12 22 -44 7
-60 -29 -6 -13 -18 -24 -27 -24 -14 0 -14 2 -1 10 12 7 12 12 2 22 -10 10 -17
10 -32 0 -31 -19 -53 -15 -47 8 6 24 -18 28 -27 5 -5 -14 -9 -14 -33 -1 -16 8
-41 12 -56 9 -15 -3 -27 -1 -27 5 0 6 -3 18 -6 27 -5 13 -2 15 21 9 21 -5 27
-4 23 7 -7 21 -47 23 -69 3 -17 -16 -22 -16 -29 -4 -9 14 -15 6 -11 -14 1 -5
-4 -13 -10 -17 -16 -10 6 -39 30 -40 10 0 11 -2 4 -6 -7 -2 -13 -11 -13 -20 0
-15 -23 -43 -36 -43 -3 0 -1 7 6 15 21 25 2 30 -21 6 -20 -21 -27 -65 -18
-101 3 -9 -4 -16 -18 -18 -13 -2 -23 1 -23 7 0 6 5 11 10 11 6 0 10 7 10 15 0
11 -7 14 -24 9 -18 -4 -25 -1 -29 15 -5 21 -31 29 -41 12 -3 -5 -15 -7 -25 -4
-27 7 -38 -32 -17 -56 20 -22 21 -41 2 -41 -9 0 -16 -17 -21 -50 -6 -42 -9
-49 -21 -39 -8 6 -14 18 -14 25 0 8 -4 14 -10 14 -5 0 -10 -7 -10 -15 0 -8 5
-15 10 -15 6 0 10 -7 10 -15 0 -8 -4 -15 -10 -15 -5 0 -10 -8 -10 -17 -1 -23
-23 -53 -39 -53 -8 0 -10 8 -6 21 6 18 5 19 -14 10 -15 -9 -25 -8 -40 1 -15 9
-24 8 -45 -5 -14 -10 -26 -23 -26 -30 0 -6 -9 -23 -20 -37 -11 -14 -20 -33
-20 -43 0 -11 -10 -27 -22 -37 -20 -16 -21 -22 -10 -39 16 -28 15 -31 -7 -31
-24 0 -52 -37 -44 -58 5 -12 1 -14 -20 -8 -43 10 -47 -21 -4 -37 5 -1 1 -16
-7 -32 -20 -38 -20 -51 0 -31 17 18 44 21 44 6 0 -5 -7 -10 -15 -10 -8 0 -19
-9 -25 -20 -13 -24 -58 -27 -66 -5 -4 8 -12 15 -19 15 -17 0 -29 -48 -16 -64
7 -9 7 -16 -2 -25 -9 -9 -9 -14 3 -21 13 -8 12 -10 -2 -10 -11 0 -18 -8 -18
-19 0 -11 -6 -21 -13 -24 -7 -2 -8 -8 -3 -13 5 -5 11 -4 13 4 5 13 45 17 56 5
8 -7 -39 -53 -56 -53 -7 0 -5 -6 5 -14 14 -11 16 -19 7 -49 -6 -24 -16 -37
-27 -37 -11 0 -13 -3 -6 -8 17 -11 26 -47 18 -77 -6 -23 -11 -26 -35 -23 -16
3 -29 1 -29 -4 0 -4 5 -8 10 -8 16 0 12 -30 -5 -36 -23 -9 -18 -27 6 -21 13 3
19 1 16 -6 -2 -7 -18 -11 -36 -9 -31 2 -39 -6 -22 -24 5 -5 11 -22 13 -39 2
-20 11 -33 26 -40 24 -11 28 -20 12 -30 -5 -3 -20 1 -32 9 -12 9 -33 16 -45
16 -13 0 -23 5 -23 10 0 6 5 10 10 10 6 0 10 5 10 10 0 6 -11 10 -24 10 -14 0
-28 5 -31 11 -11 17 2 21 24 8 23 -15 28 -12 33 16 2 14 -2 20 -15 19 -13 -1
-16 3 -12 16 3 11 0 20 -10 24 -8 3 -15 13 -15 22 0 12 6 15 25 10 28 -7 33 5
10 24 -11 9 -14 22 -9 46 4 22 2 34 -5 34 -6 0 -11 7 -11 16 0 13 -7 15 -30
11 -27 -6 -30 -4 -30 18 0 23 -2 23 -31 13 -18 -6 -34 -19 -36 -29 -8 -28 -23
-23 -23 7 0 34 -19 27 -43 -17 -10 -19 -13 -28 -6 -21 20 19 29 15 29 -13 0
-29 7 -31 31 -9 22 20 52 11 47 -13 -3 -12 -12 -17 -26 -16 -14 2 -22 -3 -22
-12 0 -8 -5 -15 -10 -15 -6 0 -8 -11 -4 -25 4 -18 1 -27 -10 -31 -23 -9 -31 2
-16 21 19 23 3 31 -21 10 -17 -17 -22 -17 -30 -5 -9 13 -10 13 -7 0 3 -8 14
-19 26 -25 12 -5 22 -13 22 -17 0 -3 7 -14 16 -23 15 -15 15 -18 -5 -39 -21
-22 -20 -56 1 -56 5 0 8 -12 6 -27 -2 -20 -8 -27 -20 -25 -9 1 -19 -2 -23 -8
-3 -5 -23 -10 -44 -10 l-37 0 3 75 c2 61 0 75 -12 75 -8 0 -15 7 -15 16 0 12
-7 14 -28 9 -20 -4 -33 -1 -42 10 -12 14 -10 16 13 10 19 -5 28 -3 33 8 3 8
17 18 30 21 21 6 24 12 22 37 -4 35 -24 39 -21 3 2 -27 -9 -31 -27 -9 -7 8
-19 15 -26 15 -8 0 -14 5 -14 11 0 5 5 7 10 4 13 -8 50 4 50 16 0 6 -9 7 -20
4 -11 -3 -20 -3 -20 0 0 10 28 35 39 35 6 0 11 5 11 10 0 6 -7 10 -15 10 -8 0
-15 -4 -15 -10 0 -5 -7 -10 -15 -10 -17 0 -20 16 -5 25 17 10 11 25 -9 25 -10
0 -22 7 -25 16 -5 13 -9 14 -21 4 -8 -6 -19 -9 -25 -5 -5 3 -13 -1 -17 -11 -6
-16 -7 -15 -20 2 -17 24 -17 40 1 25 12 -10 17 -8 25 8 15 28 14 51 -4 51 -9
0 -15 10 -16 23 -1 12 -3 35 -5 51 -1 15 3 38 11 50 14 22 9 80 -6 70 -5 -3
-9 -17 -10 -32 l-1 -27 -10 28 c-14 39 -31 23 -23 -23 8 -45 -1 -53 -40 -35
-17 7 -38 16 -47 19 -10 3 -18 10 -18 16 0 13 33 13 47 -1 7 -7 12 -2 17 17 6
21 3 32 -10 41 -24 17 -44 16 -44 -2 0 -8 -7 -15 -16 -15 -10 0 -14 6 -10 15
8 21 -6 19 -48 -10 -39 -26 -64 -34 -32 -10 12 9 16 20 12 31 -5 13 -9 15 -18
6 -17 -17 -38 -15 -38 5 0 14 -2 15 -12 4 -11 -10 -10 -14 5 -22 9 -6 17 -17
17 -25 0 -8 -4 -12 -10 -9 -17 10 -33 -5 -20 -20 8 -9 2 -16 -24 -29 -45 -21
-54 -36 -31 -53 17 -12 17 -13 2 -13 -24 0 -21 -21 3 -27 11 -3 20 -9 20 -13
0 -12 -43 -20 -69 -13 -22 6 -23 4 -17 -20 3 -14 2 -29 -4 -32 -7 -4 -7 -12 0
-25 14 -26 2 -54 -16 -39 -11 9 -14 8 -14 -5 0 -9 5 -16 10 -16 6 0 10 -11 10
-25 0 -13 5 -35 11 -48 8 -17 7 -39 -6 -85 -17 -67 -14 -84 13 -80 13 2 18 -6
20 -37 2 -22 8 -44 13 -49 15 -16 10 -56 -7 -63 -9 -3 -25 -1 -36 6 -11 7 -22
11 -24 8 -2 -2 13 -12 34 -23 l37 -20 1 -85 c1 -135 42 -211 125 -228 39 -8
47 -31 52 -158 1 -43 5 -82 8 -88 3 -5 12 -32 19 -60 8 -27 21 -55 29 -61 13
-10 13 -15 2 -27 -7 -9 -9 -22 -5 -29 11 -17 30 -184 29 -248 -3 -96 -23 -165
-69 -232 -24 -35 -57 -72 -74 -83 -17 -11 -31 -28 -32 -37 0 -19 -21 -23 -48
-9 -9 4 -53 5 -97 2 l-80 -6 -40 -78 -40 -78 -130 -62 c-126 -60 -131 -61
-205 -60 -101 3 -139 -10 -248 -84 -130 -88 -170 -121 -205 -173 -17 -25 -33
-47 -36 -50 -4 -3 -17 -29 -30 -58 -14 -28 -28 -52 -33 -52 -4 0 -8 -6 -8 -14
0 -18 -63 -156 -71 -156 -10 0 23 94 52 152 5 10 9 23 9 30 1 7 14 29 30 48
17 19 30 41 30 50 1 30 160 200 189 200 4 0 15 8 25 18 9 11 40 31 69 46 28
15 66 36 82 45 28 17 54 22 195 37 25 3 63 13 85 23 22 11 55 25 73 31 18 7
30 15 27 18 -2 3 -65 7 -137 8 -340 9 -518 17 -518 25 0 4 7 12 16 17 10 5 17
27 19 62 2 29 9 58 15 64 5 5 10 31 10 56 0 34 5 50 21 63 16 14 18 21 9 32
-8 10 -6 18 10 33 13 12 17 22 11 26 -6 4 -5 16 5 34 7 15 11 35 8 45 -3 9 -1
17 4 17 8 0 11 17 15 95 1 20 7 35 15 35 6 0 13 12 14 28 0 15 3 38 4 52 2 14
5 50 8 80 2 30 11 75 19 100 18 56 28 95 33 140 3 19 8 37 13 40 7 5 17 49 26
130 3 19 9 69 14 110 5 41 13 88 17 105 11 43 44 95 60 95 8 0 17 7 21 16 3 8
16 20 29 25 14 5 24 17 24 28 0 11 6 21 13 24 10 4 10 7 0 18 -21 21 -15 39
12 39 25 0 32 10 18 24 -4 4 -6 25 -4 46 1 24 -2 40 -8 40 -12 0 -15 33 -4 44
9 9 4 77 -7 91 -4 6 -8 34 -9 64 0 30 -3 62 -6 72 -6 18 25 90 52 121 14 15
14 22 -1 58 -14 37 -15 44 -1 70 8 16 15 38 15 48 0 11 7 33 15 48 11 21 14
44 9 81 -4 30 -1 66 6 87 6 19 12 49 12 65 1 47 23 59 109 62 120 3 139 8 150
38 7 18 7 31 0 43 -15 24 -14 28 4 28 9 0 18 -7 21 -15 15 -38 64 6 64 57 0
16 5 28 10 28 6 0 10 -5 10 -11 0 -6 7 -4 15 5 8 8 15 22 15 32 0 14 -3 14
-15 4 -9 -7 -19 -10 -22 -6 -4 4 -1 11 7 16 12 8 12 13 0 37 -8 15 -17 30 -20
33 -10 9 -30 61 -30 76 0 9 -8 23 -17 32 -16 16 -16 16 -10 0 8 -22 -6 -23
-24 -2 -8 10 -26 14 -53 12 -35 -2 -41 0 -47 22 -11 40 -10 50 6 50 8 0 15 4
15 9 0 11 -184 25 -252 20 -50 -4 -69 14 -21 19 15 1 37 7 48 12 11 5 49 11
84 14 54 3 66 7 72 25 11 27 -10 40 -27 16 -9 -12 -21 -16 -39 -13 -14 3 -28
1 -31 -3 -9 -15 -34 -10 -34 6 0 8 7 15 15 15 8 0 15 5 15 11 0 23 -22 49 -41
49 -15 0 -19 4 -15 16 5 14 1 16 -24 10 -28 -5 -31 -4 -24 16 5 17 3 20 -11
15 -9 -4 -26 -2 -38 4 -16 9 -22 9 -25 0 -11 -33 -47 22 -43 66 1 11 -2 24 -7
27 -12 7 -26 -25 -41 -94 -7 -30 -21 -73 -32 -95 -10 -22 -19 -48 -19 -57 0
-33 -23 -67 -53 -78 -16 -5 -92 -10 -167 -10 -120 0 -139 2 -153 18 -10 10
-17 30 -17 45 0 14 -6 30 -14 34 -7 4 -46 56 -86 116 -66 97 -72 111 -67 144
7 40 -10 62 -49 63 -21 0 -49 25 -78 71 -20 32 -12 62 15 54 10 -4 28 0 39 8
21 14 20 15 -10 41 -20 17 -43 26 -65 26 -30 0 -33 -3 -39 -36 -6 -29 -1 -46
28 -100 20 -36 36 -73 36 -84 0 -20 45 -95 96 -162 16 -20 43 -56 59 -79 17
-24 47 -62 69 -86 53 -59 45 -73 -43 -73 l-71 0 -21 43 c-25 49 -89 130 -97
122 -7 -6 13 -46 51 -103 22 -33 26 -47 18 -55 -13 -13 -264 -18 -951 -18
-398 0 -662 10 -930 36 -85 8 -187 15 -227 15 -95 0 -345 28 -357 40 -12 12
21 50 44 50 18 0 40 38 40 68 0 21 29 134 36 141 2 2 11 -4 19 -15 13 -16 16
-17 25 -4 18 28 30 84 30 150 0 93 27 337 40 360 12 22 30 18 30 -6 0 -19 14
-18 31 3 12 14 15 11 21 -33 3 -27 7 -125 7 -218 1 -149 3 -167 16 -156 8 7
15 27 15 44 0 37 25 175 34 183 3 4 6 -6 6 -20 0 -35 18 -35 26 1 3 15 12 49
20 75 10 33 15 96 16 200 0 153 9 199 37 195 16 -3 32 33 44 100 l7 32 -195 0
-194 0 -20 -67z m6964 -50 c6 -11 17 -28 23 -36 7 -9 12 -24 10 -34 -2 -13 3
-17 19 -16 13 2 22 -1 21 -5 -1 -4 5 -19 12 -34 10 -22 11 -36 2 -67 -7 -21
-12 -59 -12 -84 0 -46 -10 -57 -50 -57 -21 0 -26 13 -25 60 0 30 4 35 24 32
17 -1 22 2 19 15 -2 11 -11 17 -21 15 -16 -3 -22 19 -20 76 1 23 -15 12 -31
-23 -24 -49 -52 -47 -61 4 -4 27 -13 41 -26 44 -25 7 -25 41 1 95 20 40 22 42
63 39 31 -2 45 -9 52 -24z m2866 -2984 c15 -8 24 -7 35 2 8 6 18 9 22 5 3 -4
-12 -23 -36 -42 -23 -20 -42 -41 -42 -47 0 -17 -42 -57 -60 -57 -25 0 -80 51
-80 74 1 37 33 64 81 69 24 2 48 4 52 5 5 1 17 -3 28 -9z m-966 -851 c-4 -13
-14 -29 -23 -36 -15 -11 -15 -14 -2 -22 21 -14 40 -12 41 3 0 10 2 10 6 0 2
-7 12 -13 21 -13 27 0 40 -40 24 -72 -15 -32 -46 -37 -73 -12 -16 14 -19 14
-34 -10 -16 -25 -18 -25 -31 -9 -7 10 -23 18 -35 18 -35 0 -33 20 6 50 39 29
57 26 37 -5 -10 -16 -10 -20 2 -20 28 0 36 24 22 65 -12 34 -12 42 1 62 20 31
47 31 38 1z m-9942 -29 c-9 -9 -6 -22 12 -54 20 -36 21 -42 7 -41 -50 3 16
-59 71 -68 27 -4 30 -16 12 -40 -14 -18 -16 -18 -33 -3 -10 9 -31 17 -45 17
-22 0 -27 -5 -27 -25 0 -14 4 -25 10 -25 5 0 7 -7 4 -15 -4 -8 -15 -15 -25
-15 -21 0 -26 16 -6 23 7 3 5 7 -8 12 -72 25 -75 27 -75 55 0 41 -9 42 -53 5
-22 -19 -44 -35 -48 -35 -17 0 3 28 29 41 15 7 28 14 30 15 2 1 -1 12 -7 23
-9 17 -8 24 9 41 25 25 25 34 1 27 -30 -8 -48 9 -23 22 18 9 25 8 42 -9 12
-12 26 -17 36 -13 15 6 16 7 1 18 -19 14 -12 25 15 25 13 0 18 -8 18 -30 0
-23 4 -30 20 -30 24 0 25 8 3 32 -15 17 -15 19 2 38 10 11 23 20 29 20 6 0 6
-4 -1 -11z m592 -834 c116 -3 226 -7 245 -10 70 -8 808 -8 1330 1 541 9 826 9
890 0 19 -2 52 -5 73 -5 42 -1 45 -11 21 -76 -8 -22 -17 -60 -20 -85 -3 -25
-10 -50 -15 -57 -6 -6 -11 -26 -13 -45 -3 -34 -13 -81 -23 -108 -4 -8 -5 -19
-4 -23 0 -4 -4 -18 -11 -30 -7 -12 -14 -33 -16 -47 -2 -13 -8 -30 -13 -36 -5
-6 -7 -18 -4 -26 3 -7 -1 -32 -9 -55 -8 -23 -12 -44 -9 -47 3 -3 -2 -21 -11
-40 -9 -19 -16 -48 -16 -65 0 -23 -6 -34 -22 -41 -13 -5 -17 -9 -10 -9 16 -1
7 -81 -14 -123 -8 -15 -14 -40 -14 -57 0 -16 -4 -32 -8 -35 -5 -3 -8 -30 -7
-61 2 -46 -1 -59 -16 -68 -11 -7 -19 -21 -19 -33 0 -12 -7 -25 -16 -28 -11 -4
-14 -14 -9 -34 4 -20 1 -33 -10 -42 -8 -7 -15 -27 -15 -45 0 -18 -7 -38 -15
-45 -9 -7 -14 -19 -11 -26 5 -14 -19 -70 -35 -79 -5 -4 -9 -14 -9 -25 0 -10
-7 -20 -15 -24 -11 -4 -14 -13 -9 -31 5 -21 2 -27 -15 -32 -11 -3 -21 -12 -21
-20 0 -31 -25 -4 -31 33 -3 21 -7 31 -8 22 -2 -25 -31 -22 -65 7 -16 14 -37
25 -47 25 -24 0 -72 22 -85 39 -6 8 -16 11 -22 7 -14 -8 -43 4 -36 15 3 5 14
9 25 9 22 0 26 25 5 37 -8 4 -15 17 -17 28 -3 13 -14 21 -32 23 -30 4 -48 29
-29 41 8 5 9 17 1 45 -8 28 -13 35 -23 27 -6 -6 -22 -8 -34 -4 -17 4 -21 2
-17 -10 6 -14 -22 -33 -33 -22 -3 3 0 5 6 5 7 0 12 5 12 11 0 6 -6 9 -12 6 -7
-2 -18 3 -25 12 -9 13 -14 14 -24 4 -15 -15 -49 -17 -49 -4 0 5 5 22 10 37 8
19 8 30 0 38 -5 5 -10 18 -10 27 0 9 -7 22 -15 29 -20 17 -11 47 26 84 16 15
29 35 29 42 0 8 5 14 10 14 11 0 14 33 4 43 -11 10 -40 -28 -36 -47 4 -13 1
-17 -9 -14 -8 3 -16 13 -18 24 -2 10 -8 22 -13 25 -5 3 -3 9 6 12 9 4 16 2 16
-4 0 -6 5 -7 10 -4 5 3 10 15 10 27 0 17 -4 19 -27 13 -16 -3 -37 -14 -47 -23
-14 -13 -20 -14 -23 -4 -6 17 -33 15 -33 -3 0 -8 -5 -15 -11 -15 -7 0 -23 -12
-36 -26 -17 -19 -21 -29 -14 -38 8 -9 2 -19 -20 -35 -17 -13 -34 -20 -37 -16
-4 4 1 12 11 19 26 20 20 36 -13 36 -16 0 -30 5 -30 10 0 6 -7 10 -15 10 -17
0 -20 -16 -5 -25 6 -4 6 -12 -2 -24 -14 -24 -58 -16 -58 10 0 11 -6 19 -12 20
-10 0 -10 2 0 6 6 2 12 12 12 20 0 9 -6 13 -14 10 -8 -3 -29 -2 -45 3 -21 6
-33 5 -38 -3 -3 -6 -2 -12 3 -14 20 -7 38 -22 33 -28 -3 -3 -27 5 -52 17 -33
16 -45 28 -42 39 3 8 -7 27 -24 43 -18 17 -27 34 -24 43 5 13 2 13 -15 4 -27
-15 -32 -14 -32 5 0 11 -6 14 -20 9 -15 -5 -20 -2 -20 13 0 11 -7 22 -15 26
-8 3 -15 15 -15 26 0 30 -14 24 -45 -20 -15 -22 -31 -37 -36 -34 -12 7 -12 44
0 44 5 0 5 16 0 38 -12 51 -12 50 14 58 20 7 19 9 -13 14 -35 5 -35 6 -12 19
20 11 26 10 41 -3 18 -17 31 -12 31 11 0 7 -7 13 -16 13 -10 0 -14 6 -10 15 6
17 -9 21 -19 5 -3 -5 -15 -10 -26 -10 -10 0 -19 5 -19 10 0 6 -9 1 -21 -11
-20 -20 -20 -21 -2 -34 13 -11 14 -14 3 -15 -11 0 -11 -3 -2 -12 16 -16 15
-28 -3 -28 -8 0 -15 4 -15 10 0 17 -41 33 -53 21 -15 -15 -70 -14 -85 1 -9 9
-15 9 -23 1 -19 -19 -38 -4 -45 34 -4 23 -13 37 -25 40 -11 3 -19 10 -19 15 0
5 -13 7 -30 3 -29 -6 -30 -6 -24 27 4 18 7 37 8 43 0 5 -9 11 -21 13 -13 2
-23 7 -23 12 0 4 -10 11 -22 15 -22 8 -22 8 4 12 20 3 28 11 30 31 2 21 10 28
33 33 17 4 24 7 18 8 -7 0 -19 16 -27 35 -15 36 -33 53 -44 41 -4 -4 -1 -10 6
-12 14 -5 17 -63 2 -63 -5 0 -10 7 -10 15 0 8 -9 15 -20 15 -11 0 -20 -7 -20
-15 0 -8 -9 -15 -20 -15 -11 0 -20 -4 -20 -10 0 -5 -7 -10 -15 -10 -9 0 -18
-7 -21 -15 -9 -22 -30 -18 -48 7 -24 34 -20 37 34 33 47 -3 64 5 39 21 -8 4
-8 9 0 17 16 16 13 27 -4 21 -8 -4 -15 -1 -15 5 0 16 -27 14 -33 -3 -3 -7 0
-19 6 -25 8 -8 6 -11 -9 -11 -20 0 -64 -41 -64 -60 0 -6 9 -10 20 -10 21 0 27
-15 10 -25 -19 -12 -10 -22 18 -23 15 0 37 9 49 20 18 17 25 18 37 9 11 -9 11
-17 2 -36 -14 -30 -26 -33 -19 -4 5 17 2 20 -13 17 -16 -3 -18 -11 -16 -43 l4
-40 -26 24 -25 24 -10 -27 c-11 -28 -25 -33 -37 -14 -4 6 0 16 9 23 21 15 21
29 2 45 -12 10 -19 10 -27 2 -18 -18 -27 -14 -21 11 5 18 3 20 -8 10 -19 -19
-29 -16 -29 8 0 25 -17 59 -30 59 -6 0 -10 -6 -10 -14 0 -7 -11 -16 -24 -18
-22 -4 -25 -1 -28 34 -2 22 0 42 5 45 4 3 0 11 -10 19 -20 15 -14 17 34 14 25
-1 39 6 58 27 33 38 33 66 0 57 -26 -6 -27 -5 -29 46 -1 18 -7 26 -24 28 -12
2 -27 13 -33 25 -7 12 -18 25 -25 30 -7 4 -11 14 -8 22 4 9 0 15 -9 15 -16 0
-30 24 -20 34 4 3 14 6 24 6 12 0 16 5 13 15 -9 22 -32 18 -39 -5 -5 -14 -14
-20 -28 -18 -16 2 -23 -3 -25 -19 -3 -18 -10 -23 -34 -23 -34 0 -57 23 -58 58
0 24 -21 29 -63 13 -32 -12 -42 -3 -21 21 10 10 25 16 38 13 12 -3 116 -7 231
-10z m7746 -38 c14 -9 22 -9 27 -1 5 8 36 9 102 4 l95 -7 -75 -2 c-88 -3 -144
-19 -69 -20 26 -1 52 -7 58 -14 12 -16 4 -30 -12 -20 -29 18 -55 11 -68 -18
-6 -17 -17 -28 -24 -25 -16 6 -35 -13 -35 -36 0 -26 27 -22 33 4 6 21 7 21 27
3 27 -25 25 -56 -6 -79 -19 -13 -29 -15 -37 -7 -15 15 -27 14 -27 -4 0 -8 5
-15 10 -15 14 0 12 -12 -6 -35 -9 -13 -17 -16 -22 -9 -14 21 -44 25 -58 7 -13
-17 -13 -17 -14 0 0 9 5 17 10 17 6 0 10 7 10 16 0 10 -6 14 -14 11 -7 -3 -18
-1 -24 5 -29 29 -54 -20 -32 -62 8 -15 6 -17 -9 -13 -10 3 -22 0 -25 -6 -8
-13 -46 -15 -46 -3 0 16 23 30 38 25 10 -4 13 -1 10 8 -2 8 -14 15 -26 17 -17
3 -22 -2 -22 -17 0 -23 -1 -24 -24 -15 -12 5 -13 10 -5 25 11 22 4 39 -16 39
-8 0 -11 -7 -8 -18 2 -10 -2 -24 -10 -30 -11 -9 -13 -7 -13 10 1 34 -23 33
-35 -1 -9 -25 -17 -31 -40 -31 -16 0 -29 5 -29 12 0 9 -3 8 -12 -1 -10 -11
-10 -14 0 -18 17 -7 15 -33 -3 -33 -10 0 -15 10 -15 28 0 38 -17 52 -61 52
-43 0 -61 -16 -27 -23 20 -4 19 -4 -4 -6 -16 0 -28 -6 -28 -11 0 -16 -53 0
-69 21 -22 30 -45 24 -38 -10 3 -15 1 -33 -6 -40 -16 -16 -54 -14 -64 3 -4 8
-19 17 -33 21 -22 5 -25 2 -26 -20 -2 -27 14 -33 34 -13 9 9 12 8 12 -6 0 -19
-23 -46 -39 -46 -13 0 -18 9 -46 87 -32 87 -32 95 0 83 20 -7 25 -6 25 5 0 8
-7 15 -16 15 -12 0 -15 7 -12 25 3 14 1 25 -3 25 -5 0 -12 0 -16 0 -5 -1 -7
-10 -5 -20 6 -36 -6 -21 -52 69 l-46 89 33 5 c34 6 80 8 349 10 91 1 170 6
175 10 13 14 380 -1 404 -16z m-7634 -1697 c3 -11 9 -20 13 -20 4 0 38 -31 77
-70 42 -42 97 -84 139 -106 38 -20 80 -44 94 -54 14 -9 36 -21 49 -25 26 -8
97 -78 106 -104 4 -14 40 -42 120 -96 34 -23 8 -29 -37 -9 -50 22 -98 61 -98
78 0 6 -12 25 -27 42 -24 26 -52 46 -138 102 -11 7 -47 26 -80 41 -63 30 -215
163 -215 187 0 8 -9 14 -20 14 -13 0 -20 7 -20 20 0 12 7 20 16 20 9 0 18 -9
21 -20z m2282 -454 c-15 -32 -31 -37 -144 -47 -49 -5 -119 -13 -155 -18 -36
-5 -110 -13 -165 -16 -55 -4 -107 -9 -115 -12 -8 -3 -57 -7 -109 -9 -51 -3
-107 -7 -125 -10 -58 -9 -512 -13 -541 -5 -29 9 -29 9 -5 11 14 1 111 2 215 2
105 0 195 4 200 8 6 5 60 11 120 14 128 7 190 12 300 26 44 6 118 12 165 14
47 3 141 12 210 20 98 13 128 20 140 35 20 25 24 20 9 -13z m651 -582 c52 -53
104 -99 115 -104 11 -4 58 -34 103 -66 46 -33 95 -65 108 -72 25 -14 32 -36
14 -47 -6 -3 -22 2 -38 13 -24 16 -57 33 -72 36 -19 4 -339 314 -340 329 0 18
22 0 110 -89z m5023 -606 c11 -5 24 -5 34 1 22 12 54 -4 47 -22 -3 -9 -28 -14
-77 -15 -108 -3 -157 -12 -157 -29 0 -8 4 -11 10 -8 5 3 20 -3 32 -15 18 -17
20 -23 9 -29 -9 -6 -1 -11 28 -16 70 -12 45 -25 -46 -25 -49 0 -117 -7 -153
-14 -45 -10 -69 -11 -78 -4 -13 11 -85 12 -144 3 -21 -4 -38 -3 -38 2 0 15 81
168 95 178 16 13 412 7 438 -7z m-6843 -48 c13 -15 27 -16 120 -9 58 4 206 9
329 11 l224 3 16 -26 c9 -14 38 -58 64 -98 27 -40 47 -75 45 -77 -10 -10 -751
-23 -768 -14 -12 6 -20 23 -22 48 l-3 37 -85 7 c-47 5 -170 10 -274 13 -145 3
-193 8 -205 19 -12 11 -48 15 -141 16 -69 0 -136 3 -150 5 -35 5 -172 23 -190
24 -37 2 -80 14 -80 22 0 5 3 9 8 10 4 0 21 2 37 5 72 10 394 21 670 23 165 1
301 4 304 6 10 10 87 -9 101 -25z m-435 -156 c50 -4 126 -8 170 -9 195 -4 187
-3 175 -25 -10 -18 -17 -20 -59 -14 -31 4 -51 2 -55 -5 -4 -6 -22 -11 -39 -10
-31 0 -31 1 -8 10 15 6 21 13 15 19 -12 12 -56 1 -47 -13 4 -7 -14 -8 -58 -2
-77 9 -221 13 -232 7 -5 -2 -59 -4 -120 -3 -91 1 -114 5 -124 18 -23 30 -15
36 40 30 28 -2 90 -2 137 2 47 4 92 6 100 5 8 -2 56 -6 105 -10z m7502 -65
c23 -10 52 -19 65 -19 26 0 48 -17 48 -37 0 -7 -6 -13 -13 -13 -8 0 -22 -9
-32 -20 -10 -11 -21 -17 -26 -14 -12 7 -59 -6 -59 -17 0 -5 13 -9 30 -9 18 0
42 -11 63 -30 19 -16 42 -30 51 -30 22 0 80 -30 72 -37 -3 -3 -44 -5 -90 -4
-51 1 -87 -3 -91 -10 -11 -16 -1 -20 62 -28 41 -5 66 -14 81 -29 12 -12 31
-22 41 -22 17 0 113 -38 101 -41 -3 0 -16 -2 -30 -5 -14 -2 -30 -11 -36 -19
-6 -8 -20 -15 -31 -15 -11 0 -23 -3 -27 -7 -4 -5 -18 -8 -29 -8 -13 0 -22 -6
-22 -15 0 -10 8 -14 28 -12 15 1 27 -2 27 -8 0 -14 -44 -30 -86 -30 -24 0 -34
-5 -34 -15 0 -21 -33 -19 -82 7 -52 27 -73 29 -491 31 l-337 2 -14 27 c-21 41
-72 92 -84 84 -6 -3 3 -19 20 -38 l31 -33 -42 -3 c-22 -2 -41 -7 -41 -12 0
-14 31 -21 66 -14 31 6 34 4 34 -20 0 -32 -31 -50 -73 -41 -26 6 -30 5 -20 -6
10 -9 7 -17 -10 -35 -18 -19 -23 -20 -32 -7 -9 12 -32 15 -105 14 -51 0 -97 2
-102 6 -18 10 16 23 64 23 59 0 71 16 17 23 -22 3 -43 7 -45 10 -6 6 79 133
118 176 19 20 45 54 58 75 13 22 42 61 65 87 22 25 59 71 83 101 l43 56 387 0
c361 0 389 -1 429 -19z m-7108 -13 c9 -6 196 -9 441 -7 l427 2 24 -48 c13 -26
29 -53 34 -59 6 -6 30 -35 55 -64 126 -148 251 -290 278 -316 40 -38 29 -44
-75 -38 -54 3 -101 8 -105 10 -3 2 -17 0 -30 -5 -15 -5 -84 -3 -183 6 -131 12
-183 12 -291 2 -82 -7 -177 -9 -255 -4 -68 4 -135 7 -149 6 -14 0 -106 -3
-204 -6 -100 -3 -255 0 -350 6 -94 7 -219 14 -278 16 -63 3 -108 8 -108 14 0
6 -6 4 -14 -4 -17 -17 -115 -30 -130 -18 -6 5 -40 12 -76 15 -36 3 -148 13
-250 21 -101 9 -186 17 -187 19 -2 2 16 8 39 15 73 22 88 45 36 55 -124 21
-124 21 -98 29 24 8 24 8 5 16 -27 11 -49 38 -37 45 22 13 209 25 352 22 198
-5 439 5 390 15 -19 4 -129 11 -245 14 -219 6 -435 21 -495 34 -33 7 -32 8 25
14 100 11 455 28 465 22 12 -7 23 12 15 25 -4 7 -11 8 -18 2 -18 -15 -69 -12
-95 5 -30 19 -22 27 31 28 23 1 51 6 61 12 22 12 6 16 -158 33 -96 10 -115 15
-105 25 3 2 183 9 400 15 493 12 685 20 728 29 47 9 113 8 130 -3z m1329 -568
c17 -17 15 -25 -10 -33 -20 -7 -19 -9 12 -12 53 -7 86 -43 38 -43 -24 0 -58
-26 -58 -45 0 -7 -12 -12 -27 -12 -37 0 -132 -18 -140 -27 -4 -3 -2 -11 4 -17
7 -7 27 -5 64 6 30 9 71 21 92 27 20 6 37 14 37 18 0 3 15 4 34 2 23 -3 36
-10 39 -23 3 -13 14 -19 31 -19 28 0 52 -36 36 -53 -4 -5 -42 -10 -84 -11 -42
-1 -81 -7 -86 -12 -18 -18 0 -44 31 -44 59 0 26 -19 -45 -25 -65 -6 -78 -5
-113 15 -30 18 -47 22 -76 16 -37 -7 -43 -26 -8 -26 19 0 51 -29 35 -31 -5 -1
-31 -3 -57 -5 -27 -2 -61 -11 -75 -19 -27 -14 -27 -14 19 -15 25 0 49 3 53 7
4 5 52 6 107 4 67 -2 104 1 114 9 11 9 27 9 71 -1 49 -11 54 -14 36 -22 -23
-11 -28 -22 -13 -32 15 -9 61 17 61 34 0 12 3 12 12 3 7 -7 31 -12 55 -12 36
0 45 -4 52 -22 13 -33 0 -41 -78 -44 -44 -1 -79 -8 -93 -18 -13 -9 -43 -16
-69 -16 -39 0 -53 5 -77 30 -36 36 -40 36 -50 10 -7 -18 -18 -21 -80 -25 -40
-2 -72 1 -72 6 0 5 7 9 15 9 20 0 19 16 -1 24 -22 9 -94 7 -94 -2 0 -4 14 -13
30 -20 17 -8 30 -20 30 -28 0 -9 11 -14 34 -14 19 0 38 -4 41 -10 11 -17 61
-11 80 10 21 24 58 26 75 5 10 -13 9 -15 -12 -15 -14 0 -38 -10 -53 -21 -15
-12 -39 -22 -53 -22 -23 0 -168 10 -222 15 -8 1 -23 0 -34 0 -15 -2 -16 -5 -6
-17 11 -13 4 -15 -56 -15 -38 0 -79 -3 -91 -6 -14 -4 -23 -2 -23 5 0 6 6 11
13 11 31 0 117 32 111 41 -3 5 -15 7 -27 3 -12 -4 -57 -7 -100 -6 -49 1 -76
-2 -72 -8 3 -6 19 -10 36 -10 16 0 29 -4 29 -9 0 -6 -22 -7 -52 -4 -29 4 -104
6 -167 6 -105 0 -111 1 -86 15 15 7 41 12 58 9 17 -2 47 2 66 10 19 8 47 12
63 9 33 -7 88 3 88 15 0 5 -11 9 -24 9 -48 0 -35 18 16 24 103 10 208 29 208
38 0 19 -54 24 -235 22 -140 -1 -201 2 -233 12 -23 8 -58 14 -77 14 -24 0 -35
5 -35 14 0 8 -9 18 -20 21 -11 3 -20 11 -20 16 0 20 -54 31 -88 19 -25 -9 -36
-9 -47 0 -12 10 -16 9 -21 -5 -8 -21 11 -35 47 -35 27 0 99 -26 99 -35 0 -3
-53 -4 -117 -4 -65 1 -109 3 -98 6 11 2 30 6 43 9 30 6 28 20 -5 38 -16 8 -22
15 -15 16 14 0 17 26 3 34 -4 3 -22 -7 -40 -23 -29 -26 -38 -28 -92 -25 -33 2
-59 -1 -59 -6 0 -17 -76 -11 -91 7 -13 15 -9 16 39 11 36 -4 52 -2 49 6 -2 6
-26 12 -53 14 -27 2 -53 7 -59 13 -5 5 -23 9 -40 9 -16 1 -41 7 -55 15 -22 12
-23 14 -7 20 9 4 23 2 31 -4 12 -10 29 -14 140 -27 53 -7 100 10 92 33 -4 8 3
13 19 13 46 0 35 19 -19 35 -37 11 -71 14 -101 9 -26 -3 -51 -2 -58 4 -6 5
-39 12 -72 16 -33 3 -94 11 -135 17 -41 6 -100 13 -130 15 -30 1 -87 9 -126
16 -41 8 -83 11 -100 6 -19 -5 -36 -3 -51 7 -13 9 -46 15 -82 15 -64 0 -91 6
-91 22 0 5 15 6 33 3 17 -3 88 -7 157 -9 124 -4 220 -20 220 -37 0 -5 5 -9 10
-9 6 0 10 7 10 15 0 17 40 21 56 6 10 -11 111 -27 269 -43 108 -11 138 -12
240 -10 28 1 68 1 90 1 l40 -1 -22 -18 c-13 -10 -23 -23 -23 -29 0 -18 26 -12
46 10 18 20 24 21 186 14 122 -6 168 -4 168 4 0 6 -16 11 -37 11 -21 0 -67 5
-103 11 -98 16 -125 20 -250 29 -63 5 -137 14 -165 20 -27 5 -68 11 -90 13
-22 1 -38 6 -37 11 7 17 -26 26 -124 31 -55 4 -130 10 -169 14 l-70 7 95 7
c260 18 290 18 290 2 0 -19 16 -19 66 -1 36 12 185 22 157 10 -7 -3 -13 -10
-13 -15 0 -13 28 -11 32 3 3 9 37 11 124 8 158 -5 115 -5 663 3 267 4 487 10
490 12 7 8 16 6 29 -7z m-2723 -68 c8 -7 51 -14 95 -16 44 -2 104 -10 132 -19
28 -8 77 -15 107 -15 31 -1 100 -9 155 -19 54 -10 108 -16 120 -14 11 2 61 -5
110 -15 67 -15 96 -17 113 -9 18 8 27 7 40 -5 10 -8 26 -18 36 -21 33 -12 7
-30 -32 -23 -20 4 -63 11 -96 16 -165 24 -208 31 -216 35 -4 3 -47 7 -96 10
-136 6 -234 15 -278 27 -22 6 -49 11 -60 13 -11 1 -38 7 -60 13 -22 6 -85 18
-140 28 -137 24 -152 36 -38 31 53 -3 99 -10 108 -17z m7863 -14 c72 -3 98
-19 68 -42 -22 -16 -5 -19 23 -5 10 6 28 7 40 4 17 -4 19 -8 10 -20 -21 -25 6
-38 77 -35 36 1 72 6 81 11 14 7 12 11 -13 25 l-29 16 40 -2 c24 -2 39 -8 38
-15 -5 -25 100 -27 492 -7 101 5 123 4 133 -9 11 -13 6 -18 -40 -36 -54 -20
-47 -26 24 -21 14 1 29 -3 33 -9 4 -8 -25 -11 -91 -11 -59 0 -94 4 -89 9 6 5
19 11 30 13 17 4 15 6 -9 13 -33 9 -326 -10 -399 -26 -38 -9 -52 -8 -70 4 -17
11 -37 12 -85 7 -44 -6 -79 -4 -115 6 -70 19 -83 18 -106 -7 -17 -18 -28 -21
-72 -17 -42 4 -49 3 -36 -7 9 -6 49 -12 89 -13 91 -2 130 -10 125 -25 -4 -14
-297 -23 -297 -9 0 14 -48 32 -84 32 -38 0 -100 23 -89 33 3 4 14 7 23 7 10 0
23 6 29 14 16 19 -26 26 -173 26 -109 0 -160 9 -145 24 3 4 115 7 249 7 345 2
406 9 351 38 -27 15 -115 17 -376 9 -130 -4 -219 -3 -205 1 14 5 50 10 80 11
30 1 66 6 80 11 21 7 165 5 408 -5z m-7865 -135 c32 -11 89 -23 125 -26 44 -4
81 -14 109 -31 35 -20 54 -24 130 -24 70 0 95 -4 121 -20 18 -11 39 -20 47
-20 8 0 15 -4 15 -8 0 -18 -12 -20 -38 -6 -15 8 -33 14 -41 14 -8 0 -22 6 -30
14 -13 11 -26 12 -61 5 -57 -13 -67 -13 -107 -4 -28 6 -33 5 -33 -10 0 -13 6
-16 26 -12 18 3 32 -2 47 -18 12 -13 31 -25 41 -27 29 -5 15 -24 -14 -20 -40
4 -124 36 -133 49 -5 8 -18 11 -31 7 -17 -4 -27 1 -39 20 -10 14 -17 28 -17
31 0 9 57 6 84 -5 14 -5 26 -7 26 -3 0 14 -37 32 -67 33 -17 0 -35 5 -38 10
-3 6 -20 10 -36 10 -29 0 -29 -1 -14 -23 23 -35 8 -39 -45 -12 -32 16 -63 24
-96 23 -73 -2 -97 9 -90 38 5 17 2 24 -8 24 -8 0 -16 -10 -18 -22 -3 -20 -9
-23 -45 -24 -23 0 -40 3 -37 8 3 4 12 8 21 8 11 0 14 6 9 27 l-7 26 93 -6 c51
-3 119 -15 151 -26z m592 -67 c50 -14 108 -27 130 -30 50 -7 95 -24 115 -43
13 -12 4 -13 -75 -8 -110 8 -138 15 -131 33 4 11 -5 14 -40 12 -24 -1 -50 4
-56 10 -7 7 -23 12 -36 12 -21 0 -52 20 -52 34 0 12 59 4 145 -20z m8275 -14
c0 -22 -6 -29 -26 -34 -15 -4 -33 -14 -42 -22 -10 -10 -25 -14 -43 -10 -18 3
-29 0 -32 -9 -4 -8 -28 -15 -69 -18 -35 -3 -76 -8 -92 -12 -28 -8 -29 -7 -22
20 6 24 5 27 -11 20 -24 -10 -193 -26 -204 -19 -5 3 -9 10 -9 15 0 6 3 8 8 5
7 -4 54 4 132 24 25 7 67 12 93 11 29 -1 53 4 62 12 7 8 40 17 72 20 32 4 81
13 108 20 62 16 75 12 75 -23z m-8795 -55 c16 -6 17 -8 5 -13 -8 -3 -25 -13
-37 -22 -19 -15 -21 -20 -9 -29 8 -7 17 -8 20 -3 11 19 89 21 118 4 15 -9 28
-20 28 -24 0 -12 -28 -10 -50 4 -15 9 -24 9 -42 -1 -14 -7 -44 -11 -69 -9 -35
2 -43 6 -41 21 2 11 -4 17 -15 17 -11 0 -36 9 -56 19 -25 13 -49 17 -75 14
-28 -4 -49 1 -78 17 l-39 22 68 -6 c37 -3 79 -1 94 5 20 7 30 6 42 -5 21 -19
62 -10 54 10 -5 13 -1 13 28 0 19 -8 43 -18 54 -21z m8935 -124 c0 -10 -78
-28 -139 -33 -19 -2 -36 -9 -39 -15 -3 -10 15 -13 67 -13 39 0 71 -4 71 -10 0
-15 -36 -30 -72 -30 -18 0 -63 -3 -100 -7 -53 -6 -66 -11 -59 -22 7 -11 18
-11 64 -1 45 10 62 10 86 0 17 -7 31 -16 31 -21 0 -5 -43 -8 -95 -8 -52 0
-100 -3 -105 -6 -6 -4 -16 -2 -23 3 -15 12 -83 19 -93 9 -4 -4 -131 -7 -283
-7 -161 0 -282 -4 -291 -10 -11 -7 -5 -10 25 -11 22 -1 50 0 62 0 11 1 24 -2
27 -8 4 -6 -29 -12 -84 -17 -126 -9 -117 -34 20 -48 36 -4 76 -14 90 -21 24
-14 24 -14 -21 -15 -69 0 -147 17 -179 40 -15 11 -36 20 -45 20 -9 0 -13 5
-10 10 9 14 -39 31 -120 41 -78 10 -152 23 -205 37 -34 8 -33 9 25 14 33 3 64
2 70 -3 13 -13 123 -11 127 2 5 14 102 39 153 39 23 0 49 -6 59 -13 13 -10 34
-11 75 -6 31 4 116 4 190 -2 74 -5 155 -7 180 -3 25 3 59 1 75 -5 17 -7 53 -9
95 -4 l66 6 -65 16 c-36 9 -72 20 -80 25 -8 6 -48 11 -89 13 -71 2 -104 14
-87 30 4 4 15 2 25 -4 14 -9 22 -8 34 4 13 13 19 14 30 4 15 -12 147 -4 362
24 127 16 175 17 175 6z m-6067 -29 c37 -2 57 -8 57 -16 0 -9 -15 -11 -55 -8
-35 3 -55 1 -55 -6 0 -17 13 -21 71 -26 39 -3 55 -8 57 -20 2 -9 8 -16 13 -16
5 0 9 -4 9 -10 0 -6 -28 -10 -64 -10 -36 0 -67 -4 -70 -9 -6 -9 63 -21 120
-21 26 0 35 -6 48 -31 31 -62 15 -67 -167 -47 -85 9 -110 15 -117 29 -8 15
-14 16 -40 6 -23 -9 -35 -9 -50 1 -24 15 -228 16 -250 2 -12 -8 -9 -10 13 -10
15 0 27 -4 27 -10 0 -5 11 -10 25 -10 16 0 25 -6 25 -15 0 -11 14 -15 58 -17
31 0 68 0 80 1 13 1 30 -3 38 -10 7 -6 31 -9 51 -7 21 3 45 0 54 -5 9 -6 25
-7 35 -3 18 7 18 8 2 20 -10 7 -15 16 -11 19 3 4 12 2 19 -4 26 -21 131 -39
178 -30 33 6 49 5 56 -4 15 -18 -9 -25 -93 -25 -82 -1 -125 -20 -88 -39 11 -6
27 -11 37 -11 9 0 22 -7 28 -15 9 -12 21 -14 55 -9 43 7 40 24 -5 24 -12 0
-27 7 -34 15 -20 24 81 21 111 -4 l24 -19 -25 -20 c-17 -14 -48 -23 -93 -27
-79 -8 -104 3 -130 58 -10 20 -27 37 -40 41 -20 5 -105 -5 -132 -15 -5 -2 -36
5 -67 15 -32 11 -61 17 -64 13 -11 -11 -1 -16 54 -29 29 -7 54 -19 57 -27 8
-20 4 -21 -40 -11 -61 14 -93 12 -97 -6 -3 -15 -19 -17 -123 -16 l-120 1 38
-23 c21 -13 61 -26 89 -29 28 -4 56 -11 61 -16 19 -19 -22 -23 -106 -11 -45 7
-112 14 -150 15 -72 4 -140 21 -132 35 3 4 -19 8 -47 7 -29 -1 -89 4 -133 10
-68 10 -84 10 -103 -3 -24 -15 -66 -13 -129 9 -33 11 -41 21 -25 31 5 3 61 6
126 7 121 3 173 18 69 20 -32 1 -47 4 -33 6 13 3 29 11 35 18 11 13 114 26
203 25 28 -1 52 3 52 8 0 16 -62 22 -140 13 -75 -8 -120 -1 -120 19 0 6 14 13
30 17 49 9 34 23 -26 23 -46 0 -55 -3 -50 -15 3 -9 -1 -18 -9 -21 -8 -4 -15
-13 -15 -21 0 -11 -6 -13 -22 -8 -13 4 -43 9 -68 12 -25 2 -58 10 -75 18 -39
17 -118 35 -153 35 -15 0 -36 6 -47 13 -11 8 -53 19 -93 26 -41 6 -87 18 -103
26 -15 8 -48 15 -73 15 -47 0 -70 14 -36 23 23 6 174 -19 200 -33 35 -19 94 3
85 31 -8 23 -1 24 28 5 18 -12 40 -13 120 -6 63 6 106 6 123 0 15 -6 48 -8 74
-4 30 4 50 2 54 -5 5 -7 -4 -11 -26 -11 -32 0 -78 -23 -78 -39 0 -4 12 -13 26
-20 21 -9 40 -8 98 5 39 9 77 21 84 27 8 6 17 5 28 -4 8 -7 32 -14 52 -15 20
-2 50 -5 66 -6 40 -4 44 17 5 28 -18 5 -34 14 -36 20 -6 17 48 24 77 9 14 -7
42 -15 63 -19 31 -6 37 -10 32 -26 -4 -12 2 -24 17 -34 31 -22 38 -20 38 9 0
14 -5 25 -12 25 -9 0 -9 3 -1 11 8 8 17 8 32 -1 12 -6 26 -8 32 -5 5 4 20 0
32 -8 26 -16 87 -30 87 -19 0 5 -5 13 -11 19 -8 8 10 10 69 6 44 -3 88 -3 98
1 16 6 14 9 -11 27 l-30 21 40 -7 c22 -4 45 -10 50 -15 6 -4 31 -12 57 -18 36
-7 50 -6 58 3 13 16 -7 25 -58 25 -25 1 -32 3 -22 9 26 15 91 23 103 13 7 -6
42 -8 81 -5 52 5 64 8 51 16 -43 24 -62 48 -57 73 3 19 9 23 21 18 9 -4 42
-10 74 -12z m-2688 -116 c20 -9 38 -10 54 -4 14 5 70 9 125 10 114 1 358 1
396 0 14 0 72 -1 130 -2 70 0 119 -6 148 -17 73 -27 48 -48 -33 -27 -66 18
-91 17 -126 -3 -26 -15 -34 -16 -76 -4 -94 27 -160 24 -225 -10 -29 -15 -47
-10 -63 15 -10 16 -29 26 -53 29 -20 3 -52 9 -69 13 -20 4 -33 2 -33 -4 0 -5
-28 -13 -62 -18 -70 -9 -65 -9 -128 7 -25 6 -70 14 -100 18 l-55 8 70 1 c39 1
84 -5 100 -12z m9000 -201 c22 -8 50 -15 63 -15 12 0 22 -6 22 -14 0 -29 -131
-32 -201 -5 -37 15 -97 -14 -78 -37 7 -9 26 -21 43 -28 28 -12 18 -14 -107
-21 -98 -5 -142 -4 -150 4 -6 6 -25 11 -41 11 -34 0 -117 29 -128 43 -3 6 -41
12 -84 14 -43 2 -83 8 -88 13 -7 7 1 10 21 10 17 0 36 7 43 15 10 12 43 14
214 9 110 -3 210 -5 221 -6 11 0 52 4 90 10 98 13 115 13 160 -3z m-8382 -14
c63 -1 96 3 92 9 -9 14 12 12 70 -6 68 -21 432 -24 445 -4 6 10 16 10 54 -1
45 -13 62 -29 30 -29 -9 0 -14 -7 -12 -17 2 -10 11 -17 19 -15 9 1 29 -5 45
-13 16 -8 42 -15 59 -15 21 0 26 -3 18 -11 -6 -6 -30 -9 -55 -7 -53 6 -250
-11 -262 -22 -9 -9 5 -13 77 -25 42 -7 51 -25 12 -25 -14 0 -25 4 -25 9 0 5
-21 11 -47 14 -73 8 -136 22 -161 36 -13 7 -50 11 -85 10 -66 -2 -107 6 -107
22 0 5 15 10 33 10 40 2 -39 16 -163 28 -105 11 -156 20 -197 38 -48 20 -40
31 15 22 26 -4 91 -8 145 -8z m7491 -338 c34 3 71 9 84 13 16 5 22 2 22 -10 0
-13 12 -16 74 -16 40 0 91 -6 113 -14 43 -15 85 -10 158 18 49 19 89 20 115 4
16 -10 25 -9 48 4 23 14 36 15 72 7 24 -6 140 -11 257 -12 153 -2 216 -6 225
-15 15 -15 18 -14 -117 -17 -60 -1 -121 -5 -135 -9 -21 -6 -22 -5 -7 4 26 17
11 30 -33 30 -45 0 -61 -16 -28 -29 l23 -8 -22 -7 c-12 -4 -31 -2 -42 3 -11 6
-49 11 -85 11 -52 0 -66 -3 -66 -15 0 -17 21 -20 37 -4 16 16 59 7 55 -12 -3
-24 89 -33 135 -14 20 8 66 15 104 15 59 0 70 -3 85 -22 11 -16 15 -17 11 -5
-5 14 0 17 34 17 23 0 47 -7 55 -15 9 -8 24 -15 35 -15 10 0 19 -4 19 -10 0
-5 -15 -10 -32 -10 -18 -1 -43 -6 -56 -14 -17 -9 -35 -10 -72 -2 -40 8 -56 7
-87 -8 -23 -10 -58 -16 -88 -15 -28 1 -94 -1 -147 -5 -84 -6 -97 -5 -92 8 5
13 2 13 -20 3 -14 -7 -24 -17 -22 -24 7 -18 -68 -26 -137 -14 -133 23 -165 31
-247 60 -131 47 -260 42 -313 -11 -19 -19 -62 -23 -130 -12 -59 10 -29 34 43
34 43 0 61 5 74 19 16 18 16 19 -21 23 -24 4 -44 0 -54 -8 -8 -8 -25 -14 -37
-14 -17 0 -22 6 -22 25 0 14 -4 25 -10 25 -5 0 -10 -6 -10 -14 0 -8 -14 -20
-30 -28 -17 -7 -28 -18 -25 -26 3 -9 -3 -8 -25 3 -16 8 -37 15 -47 15 -10 0
-40 8 -67 18 -35 14 -59 17 -89 11 -24 -4 -51 -3 -66 4 l-26 10 35 7 c20 3 42
10 49 14 7 5 52 10 100 12 47 1 106 7 131 13 25 6 77 11 116 11 51 0 75 4 84
15 9 11 17 12 33 4 12 -7 45 -9 81 -6z m-8694 -185 c0 -5 -10 -9 -22 -10 -13
0 4 -4 37 -9 33 -4 80 -12 105 -17 35 -8 51 -7 73 5 33 17 60 10 55 -13 -2
-13 -19 -17 -81 -19 -56 -3 -82 -8 -90 -19 -10 -12 -42 -16 -157 -19 -80 -2
-154 -7 -165 -11 -15 -5 -28 0 -48 18 -31 29 -47 33 -47 12 0 -16 -15 -22 -80
-31 -36 -5 -51 -3 -70 12 -14 11 -40 25 -59 33 -31 12 -32 14 -15 27 10 7 41
13 68 13 28 1 71 5 96 10 29 5 49 5 57 -2 18 -14 44 -2 37 17 -8 19 41 21 53
2 10 -16 49 -28 69 -20 12 4 11 8 -3 19 -16 12 -12 13 35 14 35 0 54 5 58 14
4 11 13 10 50 -3 24 -9 44 -19 44 -23z m2490 1 c47 6 154 5 215 -1 64 -7 63
-7 45 -18 -8 -5 -23 -7 -32 -4 -10 3 -18 1 -18 -5 0 -7 44 -10 126 -10 141 1
176 -11 87 -30 -32 -8 -84 -22 -116 -32 -31 -11 -62 -19 -69 -19 -6 0 -20 -8
-31 -17 -16 -16 -41 -18 -172 -19 -96 0 -158 -4 -167 -11 -17 -14 -129 -21
-125 -8 2 6 30 11 63 13 38 2 62 8 67 17 5 10 17 12 36 9 17 -4 38 0 52 9 17
10 66 16 158 21 92 4 137 9 142 18 14 23 -4 27 -116 30 -82 2 -113 0 -120 -10
-8 -9 -44 -15 -115 -17 -58 -2 -127 -8 -155 -15 -27 -6 -77 -15 -110 -20 -33
-4 -75 -11 -92 -15 -22 -5 -33 -4 -33 4 0 6 11 11 25 11 29 0 32 8 8 26 -32
24 -171 5 -166 -22 0 -5 -23 -10 -53 -11 -42 -2 -54 1 -54 12 0 8 9 15 19 15
21 0 37 17 27 27 -3 3 -40 -2 -81 -12 -59 -13 -75 -21 -75 -35 0 -21 -20 -31
-48 -24 -12 4 -22 0 -25 -10 -4 -9 -16 -16 -28 -16 -13 0 -23 -8 -26 -21 -5
-18 -11 -20 -44 -15 -25 4 -39 2 -41 -6 -3 -9 -13 -9 -39 -1 l-34 11 32 7 c18
4 38 14 44 21 6 8 21 14 32 14 26 0 87 41 87 58 0 10 -12 12 -52 7 -29 -4 -56
-9 -60 -12 -26 -15 -115 -30 -136 -22 -13 5 -39 9 -58 9 -36 0 -44 -15 -21
-39 10 -10 6 -10 -18 0 -16 6 -50 15 -75 20 -70 12 -103 20 -125 28 -43 18
-195 51 -231 51 -32 1 -36 2 -21 11 11 7 43 8 80 4 135 -13 296 -16 317 -5 18
9 19 14 9 27 -11 13 -8 14 32 8 54 -8 290 -12 294 -5 8 12 386 -1 439 -15 22
-6 31 -4 38 9 8 14 31 16 171 16 110 0 157 -3 147 -10 -8 -6 -28 -7 -44 -4
-15 3 -38 1 -50 -4 -11 -6 -47 -14 -78 -17 -60 -7 -69 -14 -42 -36 12 -10 20
-10 35 0 11 6 29 9 40 6 11 -4 43 1 71 11 29 9 77 20 108 23 44 5 57 10 65 28
7 17 15 21 30 16 11 -4 36 -6 55 -4z m-348 -524 c162 -24 229 -66 101 -63 -65
2 -384 1 -449 -1 -20 -1 -34 4 -38 14 -7 19 -26 20 -26 0 0 -12 -17 -15 -96
-15 -85 0 -95 2 -84 15 7 8 22 15 34 15 11 0 44 8 71 17 101 33 328 41 487 18z
m-776 -118 c87 2 195 2 509 -1 144 -2 217 -6 233 -15 15 -8 28 -9 35 -3 15 12
67 15 292 16 99 1 189 -3 200 -8 34 -15 128 -18 168 -5 20 7 40 9 44 6 10 -11
-27 -46 -63 -59 -24 -8 -34 -18 -34 -33 0 -24 -36 -60 -95 -96 -38 -23 -50
-24 -203 -25 -90 -1 -198 3 -240 8 -42 5 -156 8 -252 6 -225 -4 -584 1 -975
14 -170 5 -400 12 -510 14 -241 5 -447 11 -457 13 -5 0 -8 10 -8 21 0 15 -7
20 -25 20 -15 0 -25 6 -25 14 0 17 175 23 195 6 10 -8 22 -7 45 5 30 16 35 15
86 -5 30 -12 54 -26 54 -31 0 -5 9 -9 19 -9 11 0 23 -5 26 -10 13 -21 24 1 13
25 -6 14 -8 28 -4 33 4 4 70 7 147 7 108 0 138 -2 134 -12 -3 -9 5 -13 25 -13
20 0 30 5 30 15 0 10 10 15 33 15 18 0 38 5 44 11 8 8 17 7 34 -4 19 -14 25
-14 50 -1 34 17 59 17 82 0 9 -7 28 -11 42 -8 14 2 36 -3 50 -12 22 -15 31
-15 87 -2 35 7 96 14 137 15 41 1 77 4 80 6 4 2 57 -1 118 -6 71 -6 119 -6
136 0 17 7 35 6 56 -2 34 -12 66 -1 66 23 0 17 -29 18 -370 24 -159 2 -319 8
-355 13 l-65 8 65 8 c36 5 80 10 99 12 18 3 35 6 37 7 1 2 32 1 67 -2 36 -3
100 -4 143 -3z m7951 -122 c18 -2 35 1 38 6 4 5 24 9 46 9 63 0 43 -22 -37
-42 -73 -19 -208 -23 -421 -12 -108 5 -114 4 -135 -18 -23 -23 -52 -27 -122
-14 -17 2 -38 0 -48 -5 -20 -11 -82 5 -108 28 -12 11 -7 13 30 14 83 3 115 6
155 17 22 6 94 11 160 11 201 2 283 6 290 13 6 6 73 3 152 -7z"/>
<path d="M3735 2250 c-10 -17 0 -23 53 -31 89 -15 112 -21 112 -30 0 -5 -11
-9 -24 -9 -14 0 -28 -4 -31 -10 -3 -5 3 -10 13 -10 11 0 22 -7 26 -15 7 -21
34 -19 38 2 3 14 12 17 46 15 23 -2 57 0 75 4 32 8 31 8 -23 20 l-55 13 55 -5
c30 -3 74 -7 98 -8 23 -2 48 -8 55 -13 12 -10 75 -9 185 3 44 5 62 3 62 -5 0
-7 -20 -11 -52 -11 -43 -1 -49 -3 -34 -11 10 -6 35 -9 55 -6 20 3 44 2 55 -2
26 -10 125 9 120 23 -2 7 13 12 42 13 39 2 44 0 33 -13 -6 -8 -9 -18 -5 -21 6
-7 55 44 56 58 0 6 -98 18 -210 25 -25 1 -189 7 -365 13 -176 6 -332 14 -347
17 -14 3 -29 0 -33 -6z"/>
<path d="M3897 2055 c-17 -16 -87 -21 -167 -10 -42 5 -65 3 -94 -9 -22 -9 -37
-18 -35 -21 3 -2 38 -6 79 -9 96 -7 118 -9 217 -26 64 -11 90 -11 121 -2 22 7
58 12 80 12 22 0 43 4 47 9 6 11 -41 20 -100 18 -22 0 -62 3 -90 7 -45 8 -48
10 -27 19 12 5 22 14 22 19 0 13 -37 9 -53 -7z"/>
<path d="M3503 234 c-14 -36 15 -41 192 -33 144 6 175 4 204 -9 28 -13 43 -14
90 -4 38 8 112 10 227 5 115 -4 177 -3 190 5 15 9 16 12 4 15 -24 8 -224 32
-240 30 -26 -5 -573 -2 -618 2 -32 3 -44 1 -49 -11z"/>
<path d="M4294 11306 c-3 -14 -14 -32 -25 -42 -10 -9 -19 -29 -19 -43 1 -23 2
-24 11 -8 5 9 21 17 34 17 37 0 107 30 140 60 36 33 75 34 86 2 l8 -22 33 20
c18 11 45 20 61 20 15 0 27 5 27 10 0 6 -65 10 -175 10 l-175 0 -6 -24z"/>
<path d="M10435 11318 c-23 -65 -75 -244 -75 -259 0 -20 15 -26 25 -9 4 6 11
8 16 4 5 -3 19 6 30 20 11 14 26 23 33 20 15 -6 56 45 56 68 0 7 11 44 25 82
14 38 25 73 25 77 0 15 -130 11 -135 -3z"/>
<path d="M11520 11275 c-25 -30 -4 -112 62 -244 82 -163 117 -218 128 -201 7
11 13 10 36 -4 l27 -18 -7 25 c-3 13 -24 63 -46 110 -22 47 -37 93 -34 102 3
8 1 15 -5 15 -6 0 -11 7 -11 16 0 9 -17 48 -37 88 -65 126 -85 145 -113 111z"/>
<path d="M4638 10988 c-16 -13 -132 -171 -173 -237 -5 -9 -19 -29 -30 -46 -26
-38 -75 -148 -69 -154 2 -3 22 13 44 34 22 21 43 36 47 32 4 -4 1 -13 -5 -19
-7 -7 -12 -16 -12 -20 0 -5 14 7 31 27 25 28 34 33 45 24 20 -17 18 -23 -28
-113 -73 -141 -90 -178 -84 -184 8 -7 20 9 96 120 40 59 65 86 74 82 19 -7 42
34 27 49 -7 7 3 36 34 94 46 87 53 109 35 115 -7 2 -7 14 1 35 6 18 9 38 6 45
-3 8 -6 6 -6 -4 -1 -10 -5 -18 -11 -18 -13 0 -13 1 5 44 10 24 13 50 9 72 -7
37 -12 40 -36 22z"/>
<path d="M9557 8950 c-24 -19 -26 -27 -25 -88 1 -62 3 -68 22 -68 14 1 21 -5
20 -16 -1 -10 4 -14 12 -11 9 3 13 -6 12 -36 0 -23 -4 -41 -9 -41 -5 0 -9 5
-9 11 0 5 -4 7 -10 4 -15 -9 -12 -25 4 -25 7 0 21 -15 30 -34 8 -18 22 -39 30
-45 8 -7 12 -19 9 -27 -3 -9 2 -14 17 -14 19 0 21 4 15 28 -4 20 -1 33 10 42
8 7 15 24 15 39 0 15 5 32 11 38 13 13 19 182 7 189 -5 3 -16 0 -25 -7 -13
-11 -17 -10 -28 4 -7 9 -17 17 -24 17 -6 0 -11 6 -11 14 0 16 -26 46 -39 46
-5 0 -20 -9 -34 -20z"/>
<path d="M8990 8093 c-20 -21 -22 -28 -12 -44 11 -17 9 -19 -18 -19 -24 0 -30
-4 -30 -21 0 -18 -4 -20 -25 -15 -35 9 -33 -16 3 -43 22 -17 25 -22 12 -30
-17 -12 -7 -25 32 -45 15 -8 22 -20 21 -34 -4 -30 13 -28 34 6 10 15 22 30 27
34 9 6 1 11 -41 24 -7 2 -13 -1 -13 -6 0 -6 -9 -10 -20 -10 -11 0 -20 7 -20
15 0 8 6 15 14 15 8 0 16 5 18 12 3 7 13 5 31 -7 26 -17 27 -17 27 4 0 32 13
25 32 -17 14 -32 20 -37 48 -36 18 0 38 8 45 17 13 18 35 23 35 8 0 -6 -4 -13
-10 -16 -5 -3 -10 -16 -10 -28 1 -21 2 -21 23 6 13 15 30 27 40 27 9 0 17 7
17 15 0 18 16 20 27 3 13 -21 71 -49 77 -39 4 5 2 12 -4 16 -16 10 -12 22 15
39 24 16 25 15 40 -14 9 -16 22 -30 30 -30 8 0 15 -8 16 -17 0 -10 2 -30 3
-45 1 -21 -1 -25 -12 -16 -7 7 -11 20 -9 30 7 26 -9 31 -40 14 -16 -8 -36 -17
-45 -20 -10 -3 -18 -10 -18 -16 0 -13 37 -13 45 0 9 15 37 -9 31 -26 -3 -7 -1
-16 3 -19 5 -3 5 -24 0 -47 -6 -22 -6 -44 -2 -48 14 -12 105 1 100 14 -3 7 -1
19 4 27 6 10 9 6 9 -14 0 -37 22 -43 65 -18 43 25 46 26 39 6 -4 -8 -14 -15
-24 -15 -10 0 -24 -7 -31 -16 -11 -13 -10 -17 3 -25 10 -5 14 -17 11 -29 -3
-11 -1 -20 5 -20 5 0 13 -17 17 -37 8 -47 23 -75 35 -68 5 3 12 0 16 -6 5 -8
-1 -10 -18 -7 -21 4 -24 1 -20 -14 5 -19 42 -26 42 -7 0 6 9 8 20 4 16 -5 20
-2 20 15 0 12 6 20 13 18 8 -2 26 11 40 28 34 40 80 37 96 -7 11 -33 25 -37
40 -11 9 14 12 14 20 3 6 -10 10 -10 16 -1 10 16 -15 31 -39 24 -15 -5 -18 -2
-13 15 3 14 0 21 -9 21 -8 0 -14 7 -14 16 0 13 -7 16 -37 11 -21 -3 -46 -8
-56 -12 -13 -5 -16 -3 -11 8 3 9 -3 23 -15 34 -12 9 -21 23 -21 30 0 22 31 14
52 -13 19 -23 21 -24 38 -9 21 19 55 13 64 -11 4 -12 14 -14 36 -9 36 8 42
-11 8 -24 -22 -8 -22 -9 12 -30 19 -11 31 -21 25 -21 -5 0 -2 -5 8 -11 9 -6
27 -7 40 -3 35 11 78 47 73 61 -3 7 1 25 9 40 13 26 13 28 -19 49 -19 13 -36
30 -40 40 -4 10 -13 14 -26 11 -15 -4 -20 0 -20 14 0 10 7 19 15 19 14 0 35
37 35 60 0 4 -13 13 -30 19 -16 5 -30 17 -30 25 0 10 -9 16 -24 16 -16 0 -26
7 -29 21 -3 12 -10 18 -16 14 -6 -3 -9 -10 -6 -15 13 -20 -15 -18 -30 2 l-16
23 -19 -22 c-17 -22 -49 -30 -63 -17 -9 9 -97 10 -97 2 0 -5 -9 -8 -20 -8 -11
0 -20 -5 -20 -11 0 -7 -11 -9 -29 -6 -19 4 -31 2 -35 -6 -2 -7 -5 -5 -5 4 -1
18 -27 34 -48 30 -18 -3 -16 18 2 25 23 9 18 30 -15 67 -16 19 -30 41 -30 50
0 21 -25 39 -57 41 -16 1 -38 7 -49 14 -31 16 -184 24 -184 9 0 -15 -38 -40
-50 -32 -4 3 -10 -1 -13 -7 -6 -19 -37 9 -37 33 0 21 16 26 23 7 2 -7 8 -9 13
-5 15 14 -28 39 -55 32 -13 -3 -27 -2 -30 4 -4 5 -17 -1 -31 -16z"/>
</g>
</svg>
